<svg xmlns="http://www.w3.org/2000/svg" width="626px" height="448px" viewBox="-0.00627353 0 472.013 338" version="1.1"  xmlns:xlink="http://www.w3.org/1999/xlink" preserveAspectRatio="xMidYMid meet"><rect id="svgEditorBackground" x="0" y="0" width="472" height="338" style="fill: none; stroke: none;"/>
<path fill="#150d0b" d=" M 187.89 86.76 C 190.79 67.63 211.77 54.25 230.43 57.80 C 237.13 59.18 243.39 63.25 246.80 69.27 C 248.73 72.57 249.01 76.48 249.32 80.21 C 253.51 79.53 257.87 75.51 261.91 78.36 C 263.85 76.59 266.39 76.11 268.94 76.40 C 268.45 71.67 273.84 71.54 277.09 72.34 C 278.62 71.72 280.14 71.05 281.58 70.22 C 282.89 69.95 284.48 70.29 285.46 69.14 C 285.98 69.07 287.01 68.93 287.53 68.86 C 288.92 67.61 290.91 68.08 292.58 67.63 C 293.92 66.16 295.17 64.60 296.38 63.02 C 297.98 63.27 300.25 62.24 301.31 63.89 C 304.39 62.85 307.44 61.71 310.13 59.83 C 311.14 60.64 312.14 61.47 313.15 62.29 C 312.55 64.71 312.84 67.75 310.73 69.48 C 310.48 71.10 310.24 72.73 310.03 74.35 C 312.49 73.41 314.79 71.05 317.64 72.12 C 321.58 75.07 319.99 80.66 318.53 84.54 C 320.21 83.86 321.87 83.14 323.58 82.51 C 324.76 79.86 327.46 78.89 330.10 78.30 C 330.63 78.73 331.69 79.60 332.23 80.03 C 331.97 84.45 330.66 88.75 331.04 93.21 C 328.38 95.68 324.67 96.20 321.57 97.90 C 320.48 97.95 319.40 97.98 318.33 98.02 C 317.89 98.51 317.02 99.49 316.59 99.98 C 315.56 100.00 314.53 100.03 313.51 100.06 C 311.40 101.86 308.61 102.36 305.94 101.82 C 304.75 102.92 303.67 104.30 302.02 104.69 C 297.03 106.02 292.40 108.47 287.29 109.39 C 284.50 111.20 281.14 111.69 278.23 113.27 C 274.97 112.52 272.93 115.46 270.11 116.37 C 259.05 120.57 247.79 124.17 236.79 128.49 C 236.17 128.17 234.93 127.53 234.31 127.21 C 233.91 121.09 235.87 115.05 235.00 108.96 C 234.99 106.91 235.41 104.88 235.61 102.85 C 231.43 104.95 227.00 106.50 222.76 108.49 C 222.29 109.97 221.75 111.44 221.24 112.91 C 227.38 120.07 223.58 131.55 215.82 135.82 C 210.13 139.95 200.92 139.02 197.33 132.59 C 193.48 126.28 196.68 118.39 201.34 113.48 C 200.21 109.58 201.22 105.60 201.85 101.70 C 199.14 101.73 196.26 101.75 193.91 100.21 C 189.20 97.66 187.15 91.87 187.89 86.76 Z"/>
<path fill="#dfd49e" d=" M 149.25 60.28 C 149.78 60.76 149.78 60.76 149.25 60.28 Z"/>
<path fill="#fcfdfd" d=" M 210.04 63.43 C 218.33 59.81 228.81 58.96 236.59 64.27 C 241.04 67.02 244.40 71.69 244.94 76.98 C 245.97 86.61 240.15 96.21 231.72 100.68 C 227.86 103.10 222.94 103.53 219.41 106.42 C 218.47 108.96 217.42 111.49 215.29 113.28 C 217.81 115.10 220.11 117.60 220.23 120.88 C 220.40 128.39 213.53 135.70 205.84 135.17 C 201.77 134.77 198.26 131.23 198.25 127.07 C 197.86 122.06 200.95 117.62 204.74 114.66 C 202.17 109.57 203.33 103.18 206.64 98.66 C 210.18 94.72 214.58 91.58 219.34 89.26 C 223.18 88.12 226.88 82.24 222.32 79.66 C 219.25 78.54 216.01 79.70 213.17 80.93 C 215.98 90.31 206.30 100.19 196.94 98.35 C 192.44 97.25 189.67 92.49 190.33 88.00 C 191.29 76.77 200.28 68.00 210.04 63.43 Z"/>
<path fill="#880806" d=" M 195.19 79.11 C 202.05 67.24 217.07 59.83 230.57 63.58 C 235.74 65.34 240.72 69.08 242.33 74.50 C 243.67 80.44 241.90 86.65 238.83 91.77 C 235.17 97.44 228.70 100.30 222.53 102.36 C 220.31 102.99 218.48 104.41 216.93 106.06 C 216.91 111.36 211.54 113.98 206.84 113.57 C 204.10 110.34 205.53 105.79 206.80 102.22 C 209.88 96.16 216.45 93.18 222.06 89.92 C 224.96 88.29 226.57 85.12 226.66 81.84 C 223.79 75.11 214.79 76.70 210.28 80.78 C 213.73 85.62 209.85 91.80 205.57 94.61 C 201.86 97.39 195.43 97.49 193.02 92.97 C 191.37 88.37 192.86 83.21 195.19 79.11 Z"/>
<path fill="#fffdfb" d=" M 306.44 64.56 C 307.85 64.06 309.27 63.55 310.70 63.08 C 310.57 64.93 309.75 66.56 308.60 67.98 C 308.33 70.39 309.02 73.77 305.73 74.23 C 305.19 70.96 306.52 67.82 306.44 64.56 Z"/>
<path fill="#cecdcc" d=" M 197.27 64.27 C 197.75 64.80 197.75 64.80 197.27 64.27 Z"/>
<path fill="#e70113" d=" M 199.06 76.08 C 206.23 67.39 218.07 62.62 229.25 64.71 C 229.36 66.89 229.29 69.11 229.85 71.24 C 231.37 75.69 234.70 79.16 236.93 83.23 C 237.61 85.89 237.05 88.69 236.90 91.40 C 232.97 97.93 224.81 99.23 218.56 102.59 C 215.17 104.09 215.53 108.73 212.54 110.65 C 211.11 111.69 208.59 112.45 207.33 110.78 C 206.43 106.29 207.96 101.51 211.63 98.69 C 215.66 94.39 221.78 93.00 225.78 88.72 C 228.69 85.71 228.62 80.26 225.19 77.65 C 220.83 73.91 214.15 75.88 210.18 79.23 C 208.61 81.82 210.05 85.13 209.61 88.01 C 209.57 87.18 209.48 85.51 209.43 84.67 C 208.27 84.45 207.11 84.22 205.96 84.00 C 203.59 87.13 199.91 89.93 200.28 94.28 C 200.83 94.33 201.91 94.42 202.45 94.47 L 202.90 94.51 C 200.29 94.95 197.66 94.62 195.19 93.69 C 192.76 87.64 195.15 80.90 199.06 76.08 Z"/>
<path fill="#e62b1c" d=" M 229.25 64.71 C 230.28 65.18 231.32 65.64 232.37 66.10 C 232.09 67.57 231.63 69.02 231.63 70.52 C 233.03 74.67 236.07 77.96 238.46 81.55 C 240.08 83.48 239.23 86.15 239.20 88.42 C 238.56 89.51 237.69 90.43 236.90 91.40 C 237.05 88.69 237.61 85.89 236.93 83.23 C 234.70 79.16 231.37 75.69 229.85 71.24 C 229.29 69.11 229.36 66.89 229.25 64.71 Z"/>
<path fill="#ee7347" d=" M 232.37 66.10 C 237.10 67.80 240.92 71.91 241.52 77.00 C 241.77 80.90 241.79 85.21 239.20 88.42 C 239.23 86.15 240.08 83.48 238.46 81.55 C 236.07 77.96 233.03 74.67 231.63 70.52 C 231.63 69.02 232.09 67.57 232.37 66.10 Z"/>
<path fill="#fffdfb" d=" M 296.36 68.06 C 296.43 66.22 297.69 65.19 299.50 64.99 C 298.63 68.90 298.48 72.90 298.26 76.88 C 296.35 77.49 294.43 78.10 292.50 78.63 C 292.53 75.38 292.91 72.12 293.86 69.01 C 294.49 68.77 295.73 68.30 296.36 68.06 Z"/>
<path fill="#fffdfb" d=" M 299.57 68.77 C 300.85 67.11 302.77 64.21 305.16 65.97 C 305.84 67.58 305.29 69.06 304.27 70.35 C 302.26 70.36 301.62 72.15 301.32 73.85 C 302.23 72.99 304.06 71.26 304.97 70.40 C 305.31 73.51 302.78 76.57 299.54 75.69 C 299.49 73.38 299.55 71.08 299.57 68.77 Z"/>
<path fill="#1f1614" d=" M 302.17 67.45 C 305.58 67.74 300.40 70.19 302.17 67.45 Z"/>
<path fill="#f8a580" d=" M 234.34 71.11 C 234.09 70.02 235.30 68.64 236.27 69.71 C 238.61 71.54 239.55 74.58 239.64 77.46 C 239.05 77.51 237.87 77.61 237.28 77.65 C 236.18 75.55 234.47 73.57 234.34 71.11 Z"/>
<path fill="#fffdfb" d=" M 286.28 74.82 C 286.94 71.99 289.56 68.99 292.70 70.63 C 292.28 73.51 291.81 76.39 291.57 79.29 C 289.87 79.84 288.20 80.48 286.45 80.79 C 286.56 79.59 286.77 77.20 286.88 76.00 C 287.57 76.85 288.25 77.70 288.92 78.56 C 290.39 77.13 289.73 75.94 288.23 75.03 C 289.78 74.35 290.75 73.30 289.94 71.75 C 289.64 73.84 288.42 74.87 286.28 74.82 Z"/>
<path fill="#221817" d=" M 295.47 70.19 C 295.76 70.18 296.33 70.14 296.61 70.13 C 296.23 72.15 296.86 74.56 295.48 76.28 C 295.39 74.25 295.44 72.22 295.47 70.19 Z"/>
<path fill="#fffdfb" d=" M 283.47 78.14 C 284.39 75.83 283.54 72.16 286.53 71.32 C 286.49 74.85 285.20 78.21 284.64 81.67 C 283.88 81.95 282.34 82.53 281.58 82.82 C 281.49 79.73 281.21 76.64 281.33 73.55 L 283.35 72.99 C 283.39 74.71 283.43 76.42 283.47 78.14 Z"/>
<path fill="#fffdfb" d=" M 271.70 75.00 C 272.26 74.75 273.38 74.24 273.94 73.98 C 273.56 77.95 273.75 81.97 273.16 85.92 C 272.49 86.15 271.16 86.60 270.49 86.83 C 270.96 82.90 271.53 78.97 271.70 75.00 Z"/>
<path fill="#fffdfb" d=" M 277.74 77.80 C 277.78 76.65 277.84 75.50 277.90 74.36 L 280.69 74.26 C 279.71 77.56 281.85 83.23 277.50 84.48 C 277.75 82.17 276.82 79.32 278.72 77.53 L 277.74 77.80 Z"/>
<path fill="#fffdfb" d=" M 315.12 78.40 C 315.97 76.96 315.29 75.72 314.19 74.72 L 317.33 74.32 C 317.44 75.93 317.46 77.54 317.40 79.16 C 316.68 79.30 315.22 79.57 314.50 79.71 C 314.12 80.77 313.64 81.84 313.83 82.99 C 314.93 81.61 315.50 79.40 317.67 79.32 C 317.36 81.89 315.40 85.37 312.33 84.67 C 310.24 81.97 312.40 78.10 313.02 75.18 C 313.75 76.23 314.44 77.31 315.12 78.40 Z"/>
<path fill="#eee9e7" d=" M 274.82 75.96 L 277.50 74.84 C 277.05 77.94 276.90 81.06 276.66 84.18 C 276.09 84.57 274.95 85.37 274.38 85.77 C 274.43 82.49 274.42 79.21 274.82 75.96 Z"/>
<path fill="#fffdfb" d=" M 304.63 85.94 C 306.68 82.55 303.22 76.05 308.42 75.10 L 308.02 77.35 C 308.83 77.10 310.46 76.61 311.27 76.36 C 311.25 79.47 310.66 82.53 310.40 85.63 C 309.88 85.92 308.86 86.51 308.35 86.80 C 308.33 84.09 308.55 81.39 308.55 78.69 C 306.24 81.26 308.89 85.44 306.17 87.82 C 305.64 87.20 305.13 86.57 304.63 85.94 Z"/>
<path fill="#fffdfb" d=" M 301.21 88.75 C 302.07 85.14 300.08 80.53 302.97 77.65 C 305.75 76.85 304.26 80.43 304.05 81.69 C 303.80 83.82 302.72 86.43 304.49 88.19 C 303.67 88.33 302.03 88.61 301.21 88.75 Z"/>
<path fill="#fffdfb" d=" M 262.57 83.02 C 262.54 80.37 265.12 79.27 267.15 78.39 C 268.44 80.07 269.10 82.57 267.07 84.14 C 266.34 82.98 265.67 81.81 264.99 80.63 C 265.81 82.63 264.94 84.65 264.20 86.53 C 264.57 86.62 265.31 86.78 265.68 86.87 C 265.64 86.25 265.56 85.01 265.53 84.39 C 266.26 84.39 267.73 84.38 268.47 84.37 C 267.67 86.63 266.34 88.84 263.93 89.60 C 261.27 88.53 262.72 85.16 262.57 83.02 Z"/>
<path fill="#fff7fb" d=" M 326.88 82.67 C 327.21 81.37 328.77 81.03 329.75 80.30 C 329.56 84.45 328.44 88.51 328.52 92.68 C 327.95 92.75 326.82 92.90 326.26 92.97 C 326.98 89.58 326.61 86.10 326.88 82.67 Z"/>
<path fill="#f4f1ef" d=" M 256.49 80.75 L 258.26 79.32 C 258.54 79.91 259.11 81.08 259.39 81.66 C 259.88 81.35 260.86 80.73 261.35 80.41 C 261.83 83.64 261.61 86.93 261.07 90.14 C 260.48 90.35 259.29 90.77 258.70 90.98 C 258.92 88.49 259.19 86.01 259.46 83.52 C 259.25 83.50 258.82 83.47 258.60 83.45 C 258.54 86.01 258.42 88.57 258.26 91.13 C 257.56 91.42 256.16 91.99 255.46 92.28 C 255.79 88.44 256.08 84.59 256.49 80.75 Z"/>

<path fill="#fffdfd" d=" M 250.05 82.72 C 252.11 82.05 254.16 81.27 256.34 81.05 C 253.06 84.26 254.02 88.92 253.24 92.97 C 252.58 93.22 251.24 93.72 250.58 93.97 C 250.88 91.19 251.29 88.43 251.54 85.65 C 250.59 84.92 250.17 83.88 250.05 82.72 Z"/>
<path fill="#f5f1ef" d=" M 295.67 84.88 C 295.77 83.67 295.87 82.45 295.96 81.23 L 298.58 81.22 C 298.37 84.24 298.52 87.34 297.70 90.28 C 297.15 90.50 296.03 90.94 295.47 91.16 C 295.51 89.27 295.54 87.39 295.55 85.51 C 295.92 85.33 296.68 84.97 297.05 84.79 L 295.67 84.88 Z"/>
<path fill="#fffdfb" d=" M 289.80 83.88 C 291.70 83.20 293.59 82.51 295.52 81.88 C 294.71 84.95 294.78 88.13 294.48 91.26 L 292.30 92.41 C 292.38 89.69 292.61 86.98 292.50 84.26 C 290.54 87.30 293.30 92.19 289.36 93.87 C 289.30 90.53 289.58 87.21 289.80 83.88 Z"/>
<path fill="#e95634" d=" M 205.96 84.00 C 207.11 84.22 208.27 84.45 209.43 84.67 C 209.48 85.51 209.57 87.18 209.61 88.01 C 208.55 87.50 207.49 86.98 206.43 86.47 C 205.01 88.12 203.59 89.78 202.17 91.44 C 203.14 92.26 204.11 93.08 205.08 93.90 C 204.42 94.04 203.11 94.33 202.45 94.47 C 201.91 94.42 200.83 94.33 200.28 94.28 C 199.91 89.93 203.59 87.13 205.96 84.00 Z"/>
<path fill="#fffdfb" d=" M 283.65 86.99 C 284.75 85.99 286.50 83.61 288.08 85.09 C 289.12 87.28 288.20 89.85 288.36 92.18 C 287.22 93.87 285.52 94.95 283.69 95.75 C 281.90 93.22 282.64 89.69 283.65 86.99 Z"/>
<path fill="#fffdfb" d=" M 320.66 86.74 C 322.10 86.10 323.58 83.69 325.28 84.97 C 326.00 87.71 325.20 90.58 325.34 93.38 C 323.56 94.04 321.84 95.88 319.85 95.26 C 319.76 94.43 319.57 92.77 319.47 91.94 C 320.56 90.47 325.04 88.89 322.80 86.75 C 322.92 88.91 322.00 89.84 320.05 89.56 C 320.20 88.85 320.50 87.45 320.66 86.74 Z"/>
<path fill="#f4815b" d=" M 202.17 91.44 C 203.59 89.78 205.01 88.12 206.43 86.47 C 207.49 86.98 208.55 87.50 209.61 88.01 C 208.31 90.13 206.85 92.15 205.08 93.90 C 204.11 93.08 203.14 92.26 202.17 91.44 Z"/>
<path fill="#fffdfb" d=" M 275.88 87.05 C 276.48 86.74 277.67 86.10 278.27 85.78 L 278.57 86.98 C 277.34 88.28 277.68 90.15 277.32 91.76 C 277.08 93.67 276.86 95.59 276.57 97.50 L 276.34 98.18 L 274.41 98.81 C 274.65 95.87 274.91 92.92 274.74 89.97 C 275.12 89.00 275.50 88.03 275.88 87.05 Z"/>

<path fill="#f6f3f1" d=" M 278.31 88.53 C 279.75 87.72 281.22 86.96 282.72 86.26 C 282.94 88.09 282.57 89.75 281.12 90.95 L 280.97 91.80 C 280.45 93.49 280.82 95.97 278.92 96.84 L 278.39 96.05 C 278.30 93.54 278.77 91.03 278.31 88.53 Z"/>
<path fill="#221817" d=" M 285.48 87.28 C 285.75 87.28 286.28 87.30 286.55 87.30 C 286.35 89.32 286.36 91.41 285.49 93.29 C 285.37 91.28 285.43 89.28 285.48 87.28 Z"/>
<path fill="#fffdfb" d=" M 313.54 92.03 C 313.49 89.47 315.98 86.52 318.72 87.37 C 319.65 88.50 319.79 89.73 319.13 91.07 C 317.56 91.95 315.93 92.79 315.08 94.46 C 315.42 94.59 316.09 94.86 316.42 94.99 C 316.48 93.18 317.41 92.29 319.21 92.32 C 318.84 94.74 317.60 97.68 314.72 97.69 C 312.49 96.62 313.64 93.91 313.54 92.03 Z"/>
<path fill="#fffdfb" d=" M 307.21 94.24 C 307.55 91.65 309.60 89.04 312.43 89.34 C 313.03 90.50 312.90 91.61 312.07 92.65 C 311.49 92.30 310.34 91.60 309.76 91.25 C 310.36 92.78 311.69 93.75 312.83 94.86 C 313.20 98.07 310.29 100.18 307.32 99.72 C 306.65 97.75 308.71 94.64 310.13 97.93 C 311.40 95.87 308.42 95.30 307.21 94.24 Z"/>
<path fill="#211715" d=" M 316.10 89.41 C 319.50 89.09 314.86 92.43 316.10 89.41 Z"/>
<path fill="#fffdfb" d=" M 266.37 95.16 C 266.28 92.33 269.05 90.94 271.40 90.40 C 271.57 91.16 271.92 92.68 272.09 93.44 C 271.15 93.45 269.27 93.47 268.33 93.48 C 269.39 94.40 270.60 95.10 271.83 95.76 C 272.29 98.51 269.67 102.06 266.83 101.00 C 266.71 100.29 266.46 98.87 266.34 98.16 C 267.28 98.27 269.15 98.48 270.09 98.58 C 268.86 97.44 267.04 96.76 266.37 95.16 Z"/>
<path fill="#221817" d=" M 322.54 93.07 C 321.13 92.21 321.20 91.39 322.73 90.59 C 324.08 91.45 324.02 92.28 322.54 93.07 Z"/>
<path fill="#857d7c" d=" M 277.32 91.76 C 277.58 93.21 277.85 94.66 278.39 96.05 L 278.92 96.84 C 280.82 95.97 280.45 93.49 280.97 91.80 C 281.00 93.24 280.98 94.69 280.92 96.13 C 280.09 97.81 278.11 97.51 276.57 97.50 C 276.86 95.59 277.08 93.67 277.32 91.76 Z"/>
<path fill="#1e1413" d=" M 346.81 96.76 C 352.66 92.62 360.01 91.40 367.05 92.02 C 367.28 92.19 367.74 92.52 367.97 92.68 C 369.52 93.79 371.08 94.89 372.64 96.00 C 372.51 96.43 372.26 97.30 372.13 97.73 C 361.72 89.85 345.57 96.40 340.84 107.82 C 339.10 112.26 340.57 117.15 343.51 120.69 C 340.09 123.07 336.83 126.04 335.39 130.07 C 333.37 134.85 333.63 140.12 334.31 145.15 C 331.81 142.89 329.59 140.26 326.63 138.57 C 322.91 136.40 318.61 135.53 314.39 135.00 C 314.27 127.48 313.21 118.93 307.49 113.47 C 301.95 108.62 293.18 111.96 289.83 117.82 C 285.92 123.89 288.32 131.31 289.47 137.82 C 283.84 139.83 278.23 143.03 275.01 148.23 C 272.39 152.30 272.95 158.29 276.90 161.33 C 279.05 163.32 282.21 162.70 284.88 162.82 C 283.02 168.97 280.10 175.39 281.61 181.93 C 282.51 185.82 282.69 189.82 282.84 193.80 C 282.41 194.05 281.55 194.53 281.12 194.77 C 281.25 187.80 278.16 181.13 279.09 174.15 C 279.53 171.31 280.35 168.54 281.31 165.84 C 274.26 165.25 269.18 157.58 271.19 150.84 C 273.06 143.48 279.95 138.98 286.47 136.02 C 285.40 130.76 284.21 125.18 285.96 119.93 C 288.53 113.95 294.28 108.94 300.99 108.70 C 306.16 109.45 312.12 109.91 315.52 114.46 C 319.54 119.96 321.27 126.96 321.37 133.71 C 324.63 134.72 329.49 134.85 330.29 138.96 C 330.72 138.99 331.58 139.05 332.00 139.09 C 332.10 135.80 331.36 132.26 333.23 129.32 C 334.88 125.99 336.96 122.87 339.92 120.57 C 339.87 119.13 339.01 117.84 338.69 116.45 C 336.20 111.01 338.81 104.75 342.36 100.37 C 344.05 99.44 345.39 98.05 346.81 96.76 Z"/>
<path fill="#fffdfb" d=" M 260.72 103.37 C 259.25 99.64 260.00 92.38 265.56 93.05 C 266.08 96.85 266.16 103.88 260.72 103.37 Z"/>
<path fill="#fffdfb" d=" M 299.42 96.18 C 299.51 93.70 302.12 91.68 304.54 92.60 C 304.76 94.13 304.74 95.65 304.47 97.19 C 303.72 97.34 302.23 97.64 301.48 97.79 C 301.39 98.88 301.32 99.97 301.25 101.06 C 302.24 99.60 302.51 97.27 304.83 97.28 C 304.58 100.09 302.86 102.66 299.92 103.03 C 297.83 101.20 299.16 98.49 299.42 96.18 Z"/>
<path fill="#221817" d=" M 367.97 92.68 C 374.59 93.13 381.42 97.11 383.31 103.79 C 381.85 104.44 380.39 105.12 378.94 105.79 C 377.60 103.61 377.43 99.49 374.11 99.52 C 373.44 98.93 372.78 98.33 372.13 97.73 C 372.26 97.30 372.51 96.43 372.64 96.00 C 371.08 94.89 369.52 93.79 367.97 92.68 Z"/>
<path fill="#f5f2f0" d=" M 293.04 94.15 C 293.63 93.85 294.79 93.26 295.37 92.96 C 295.40 93.54 295.46 94.70 295.48 95.28 C 296.17 95.09 297.53 94.70 298.21 94.50 C 298.83 97.65 297.83 100.81 297.38 103.91 L 295.38 104.72 C 295.44 102.00 295.63 99.29 295.56 96.57 C 293.46 99.52 296.70 105.22 291.97 105.83 C 292.70 101.97 292.08 97.95 293.04 94.15 Z"/>
<path fill="#211715" d=" M 301.95 94.20 C 303.16 94.78 303.21 95.52 302.09 96.42 C 300.82 95.82 300.78 95.08 301.95 94.20 Z"/>
<path fill="#fffefd" d=" M 340.84 107.82 C 345.57 96.40 361.72 89.85 372.13 97.73 C 372.78 98.33 373.44 98.93 374.11 99.52 C 375.99 101.93 376.80 104.88 376.91 107.90 C 381.67 106.65 386.84 105.71 391.55 107.72 C 396.39 109.53 400.01 113.49 402.65 117.80 C 402.77 118.06 403.01 118.57 403.13 118.83 C 407.20 129.09 407.49 140.96 403.16 151.19 C 401.67 154.10 400.05 156.95 398.12 159.59 C 404.52 159.33 411.62 162.28 414.29 168.45 C 417.18 174.97 414.15 182.57 409.10 187.11 C 410.78 187.54 412.46 187.99 414.14 188.46 C 415.09 187.80 416.19 187.28 417.03 186.45 C 418.33 181.69 418.87 176.64 421.19 172.21 C 422.13 170.14 424.84 169.21 426.95 169.89 C 431.29 171.12 434.80 174.08 438.58 176.40 C 445.96 180.94 453.16 185.77 460.45 190.44 C 464.32 192.65 465.06 198.22 462.42 201.64 C 456.34 210.82 450.15 219.92 444.19 229.17 C 442.66 231.63 440.67 233.79 438.27 235.42 C 432.82 235.91 429.60 230.90 426.21 227.53 C 422.37 229.54 418.61 231.74 414.61 233.43 C 411.79 234.51 408.71 233.37 406.58 231.44 C 397.19 223.53 387.84 215.59 378.45 207.70 C 379.03 213.52 378.93 219.72 375.89 224.91 C 370.68 234.63 358.85 240.31 348.03 238.10 C 344.32 237.42 341.25 235.05 338.92 232.19 C 334.74 223.52 336.48 212.99 342.59 205.68 C 342.45 204.17 342.31 202.67 342.18 201.17 C 341.91 201.28 341.38 201.49 341.12 201.60 C 338.83 207.99 331.70 209.34 325.88 210.43 C 323.92 216.11 322.10 221.88 319.05 227.10 C 318.84 227.45 318.64 227.80 318.45 228.16 C 313.34 235.27 306.05 241.88 296.98 242.74 C 289.08 243.67 281.48 238.11 278.80 230.86 C 278.91 227.83 279.78 224.88 280.20 221.89 C 280.86 218.22 280.86 214.25 282.92 211.00 C 283.64 210.12 284.34 209.22 285.02 208.32 C 286.64 206.10 288.47 204.03 290.36 202.04 C 290.40 201.78 290.49 201.27 290.53 201.02 C 288.11 199.51 285.69 197.88 284.07 195.49 C 283.76 195.07 283.15 194.23 282.84 193.80 C 282.69 189.82 282.51 185.82 281.61 181.93 C 280.10 175.39 283.02 168.97 284.88 162.82 C 282.21 162.70 279.05 163.32 276.90 161.33 C 272.95 158.29 272.39 152.30 275.01 148.23 C 278.23 143.03 283.84 139.83 289.47 137.82 C 288.32 131.31 285.92 123.89 289.83 117.82 C 293.18 111.96 301.95 108.62 307.49 113.47 C 313.21 118.93 314.27 127.48 314.39 135.00 C 318.61 135.53 322.91 136.40 326.63 138.57 C 329.59 140.26 331.81 142.89 334.31 145.15 C 333.63 140.12 333.37 134.85 335.39 130.07 C 336.83 126.04 340.09 123.07 343.51 120.69 C 340.57 117.15 339.10 112.26 340.84 107.82 Z"/>
<path fill="#fffdfb" d=" M 256.92 95.42 C 257.53 95.33 258.76 95.17 259.37 95.09 C 259.51 97.73 259.71 100.42 259.15 103.03 C 258.92 104.44 258.05 105.12 256.55 105.07 C 256.33 102.88 256.81 100.73 257.44 98.65 L 256.76 98.80 C 256.81 97.67 256.86 96.54 256.92 95.42 Z"/>
<path fill="#221817" d=" M 264.42 95.84 C 263.91 98.77 260.28 95.34 263.22 94.71 C 263.52 94.99 264.12 95.56 264.42 95.84 Z"/>
<path fill="#fffdfb" d=" M 288.41 106.83 C 289.36 102.89 286.79 97.24 291.33 95.05 C 292.38 98.68 290.51 102.43 291.53 106.17 C 290.75 106.34 289.19 106.66 288.41 106.83 Z"/>
<path fill="#fffdfb" d=" M 251.15 97.87 C 252.90 97.26 254.61 96.61 256.36 95.99 C 256.26 99.27 256.12 102.62 255.20 105.79 L 253.58 106.72 C 253.47 103.89 253.72 101.07 253.61 98.25 C 251.93 100.69 252.86 103.85 252.48 106.60 L 250.49 107.10 C 250.83 104.03 251.06 100.95 251.15 97.87 Z"/>
<path fill="#fffdfb" d=" M 282.55 109.57 C 283.12 105.15 280.65 97.55 286.85 96.35 C 285.00 99.22 285.71 102.77 285.15 105.97 C 285.35 107.80 284.14 108.96 282.55 109.57 Z"/>
<path fill="#9b9794" d=" M 249.25 99.96 C 249.73 99.44 250.68 98.39 251.15 97.87 C 251.06 100.95 250.83 104.03 250.49 107.10 L 252.48 106.60 C 250.72 108.76 248.77 106.90 249.08 104.66 C 249.15 103.10 249.25 101.53 249.25 99.96 Z"/>
<path fill="#1f1614" d=" M 263.14 98.12 C 264.52 98.30 263.99 100.67 262.89 100.96 C 261.41 100.81 261.99 98.40 263.14 98.12 Z"/>
<path fill="#fffdfb" d=" M 244.11 103.02 C 244.52 100.74 246.38 99.42 248.28 98.39 L 249.25 99.96 C 249.25 101.53 249.15 103.10 249.08 104.66 C 249.58 107.59 247.05 109.05 244.71 109.85 C 242.93 107.81 243.78 105.33 244.50 103.08 C 243.55 103.69 242.62 104.31 241.69 104.94 C 241.37 104.43 240.73 103.42 240.41 102.91 C 240.35 105.22 240.28 107.54 240.32 109.85 C 240.54 107.99 241.48 106.79 243.16 106.26 C 243.16 109.14 240.90 112.55 237.64 111.33 C 237.50 107.98 236.90 103.35 240.47 101.52 C 242.01 100.47 243.06 102.10 244.11 103.02 Z"/>
<path fill="#072e59" d=" M 344.60 109.42 C 348.13 100.81 359.46 95.78 367.99 99.91 C 372.68 102.09 374.18 108.49 371.33 112.70 C 371.08 110.51 370.81 108.32 370.73 106.12 C 369.24 104.25 367.75 102.25 365.60 101.11 C 361.47 99.17 356.42 100.16 352.80 102.74 C 349.81 104.75 346.65 107.47 346.45 111.35 C 346.48 113.94 347.55 116.37 348.19 118.85 C 344.90 117.02 343.37 112.97 344.60 109.42 Z"/>
<path fill="#080000" d=" M 374.11 99.52 C 377.43 99.49 377.60 103.61 378.94 105.79 C 380.39 105.12 381.85 104.44 383.31 103.79 C 387.31 104.36 391.34 104.79 395.23 105.95 C 394.67 105.99 393.55 106.05 392.99 106.09 C 396.77 109.34 403.04 111.90 402.65 117.80 C 400.01 113.49 396.39 109.53 391.55 107.72 C 386.84 105.71 381.67 106.65 376.91 107.90 C 376.80 104.88 375.99 101.93 374.11 99.52 Z"/>
<path fill="#0163a0" d=" M 352.80 102.74 C 356.42 100.16 361.47 99.17 365.60 101.11 C 363.89 101.31 362.21 101.55 360.52 101.80 C 360.62 102.30 360.83 103.29 360.93 103.78 C 357.89 105.37 354.34 106.50 352.21 109.35 C 351.10 112.76 351.97 116.47 351.68 120.00 L 351.17 120.33 C 350.14 120.00 349.16 119.55 348.24 119.00 L 348.19 118.85 C 347.55 116.37 346.48 113.94 346.45 111.35 C 346.65 107.47 349.81 104.75 352.80 102.74 Z"/>
<path fill="#221817" d=" M 246.46 107.35 C 246.54 105.15 245.92 102.63 247.31 100.71 C 247.23 102.91 247.88 105.44 246.46 107.35 Z"/>
<path fill="#fffdfb" d=" M 276.66 111.57 C 275.32 107.40 275.74 100.48 281.51 100.36 C 281.88 102.87 281.88 105.45 281.37 107.95 C 280.97 110.24 278.41 110.73 276.66 111.57 Z"/>
<path fill="#7fa0c8" d=" M 360.52 101.80 C 362.21 101.55 363.89 101.31 365.60 101.11 C 367.75 102.25 369.24 104.25 370.73 106.12 C 367.66 109.71 363.94 105.06 360.93 103.78 C 360.83 103.29 360.62 102.30 360.52 101.80 Z"/>
<path fill="#fffdfb" d=" M 264.70 106.47 C 267.64 105.47 270.42 103.91 273.50 103.38 C 272.80 106.75 274.71 112.45 270.48 113.79 C 270.49 111.75 270.55 109.71 270.58 107.68 C 270.88 107.39 271.48 106.82 271.77 106.54 C 271.28 106.57 270.29 106.63 269.79 106.67 C 269.20 109.43 271.08 114.07 267.33 114.91 C 267.32 112.23 267.59 109.57 267.56 106.89 C 265.99 109.37 266.77 112.48 266.37 115.25 C 265.82 115.39 264.72 115.65 264.17 115.79 C 264.38 112.68 264.55 109.58 264.70 106.47 Z"/>
<path fill="#221817" d=" M 278.85 109.39 C 278.45 107.22 277.81 104.38 279.52 102.63 C 279.58 104.90 279.62 107.22 278.85 109.39 Z"/>
<path fill="#170c11" d=" M 181.01 109.02 C 181.54 107.32 181.87 104.74 184.04 104.45 C 188.05 104.10 192.06 103.73 196.07 103.38 C 197.77 102.99 198.86 104.47 199.51 105.80 C 198.50 114.90 193.47 122.72 189.79 130.90 C 190.26 131.42 191.21 132.46 191.68 132.98 C 191.27 137.04 189.83 140.91 188.69 144.80 C 188.10 146.84 185.66 146.65 184.00 146.92 C 179.97 147.18 175.86 148.09 171.87 147.16 C 170.70 150.84 167.72 153.67 164.07 154.85 C 158.08 156.79 152.34 159.62 146.09 160.67 C 140.21 163.25 134.18 165.54 128.01 167.33 C 126.47 167.88 125.42 169.31 123.82 169.73 C 118.99 171.18 114.34 174.12 109.11 173.31 C 106.85 175.97 103.41 176.81 100.69 178.80 C 100.13 178.89 99.03 179.07 98.48 179.17 C 94.99 180.67 91.04 180.93 87.52 182.50 C 85.99 183.45 84.62 182.17 83.24 181.59 C 82.41 174.61 82.95 167.57 82.67 160.56 C 82.03 160.32 80.76 159.84 80.12 159.60 C 78.49 157.32 79.40 154.62 79.71 152.10 C 80.08 150.15 79.87 147.84 81.54 146.44 C 84.63 143.67 82.72 138.43 85.85 135.77 C 91.16 133.31 97.02 132.34 102.46 130.25 C 103.80 130.03 105.27 130.14 106.45 129.32 C 112.38 126.67 118.53 123.65 125.07 123.16 C 133.23 118.36 143.17 117.44 151.10 112.26 C 154.36 111.32 157.60 108.99 161.09 109.98 C 163.48 109.28 165.86 108.52 168.20 107.67 C 171.48 108.68 171.52 112.13 171.28 115.00 C 171.55 117.76 169.30 119.76 168.23 122.09 C 169.32 122.72 171.14 122.90 171.50 124.37 C 172.33 129.46 171.02 134.76 172.17 139.77 C 172.94 137.39 173.54 134.93 174.63 132.67 C 175.81 132.25 176.98 131.81 178.16 131.38 C 179.12 123.92 178.55 116.21 181.01 109.02 Z"/>
<path fill="#0075c2" d=" M 352.21 109.35 C 354.34 106.50 357.89 105.37 360.93 103.78 C 363.94 105.06 367.66 109.71 370.73 106.12 C 370.81 108.32 371.08 110.51 371.33 112.70 C 371.38 113.67 371.44 114.64 371.50 115.62 C 371.64 115.74 371.93 115.98 372.07 116.10 C 373.92 116.52 375.74 117.07 377.36 118.09 C 378.97 117.41 380.57 116.71 382.18 116.01 C 382.32 116.37 382.61 117.10 382.75 117.47 C 385.93 117.50 389.10 117.65 392.28 117.73 C 392.93 121.84 394.47 125.80 394.57 129.99 C 394.65 133.14 394.76 136.28 395.00 139.42 C 394.86 139.92 394.59 140.92 394.45 141.41 C 393.01 144.97 391.64 148.99 393.13 152.76 C 389.61 156.36 385.84 159.69 381.97 162.90 C 378.59 166.48 373.68 168.30 370.90 172.50 C 371.27 172.65 372.01 172.96 372.38 173.12 C 372.34 174.12 372.40 175.13 372.56 176.12 C 371.62 175.51 370.67 174.93 369.71 174.35 C 372.38 179.02 375.73 184.02 381.05 185.86 C 383.93 186.94 387.06 186.69 390.07 186.63 L 390.65 186.61 C 390.75 186.28 390.94 185.62 391.04 185.29 C 392.34 180.83 392.79 176.16 394.30 171.76 C 397.84 170.79 401.64 170.31 404.76 168.24 C 404.88 171.57 405.31 174.88 405.53 178.21 C 406.14 178.62 407.36 179.44 407.97 179.85 C 405.46 182.03 403.00 184.26 400.61 186.57 C 399.70 187.24 398.78 187.86 397.91 188.56 C 397.68 188.74 397.22 189.09 396.99 189.26 C 401.61 192.07 406.72 193.90 411.67 196.02 C 414.75 196.09 417.90 195.10 420.64 193.73 C 423.46 190.46 426.02 186.94 429.24 184.01 C 432.53 184.82 435.82 185.67 439.07 186.64 C 441.07 189.98 445.08 190.32 448.54 191.05 C 448.55 195.06 450.68 199.19 448.94 203.09 C 447.54 206.25 445.93 209.33 445.05 212.70 C 445.80 212.65 447.30 212.56 448.05 212.51 C 447.33 213.51 446.63 214.52 445.93 215.53 C 441.76 217.26 438.72 221.64 434.05 221.91 C 430.10 221.81 426.31 219.09 422.35 220.63 C 418.14 222.03 413.42 224.23 409.15 221.72 C 400.25 216.62 393.34 208.82 385.06 202.87 C 381.58 200.37 377.59 198.66 373.40 197.79 C 372.43 197.31 371.54 196.70 370.63 196.13 C 370.62 196.38 370.62 196.87 370.62 197.12 C 370.56 203.49 370.27 209.89 369.20 216.18 C 368.07 221.90 362.98 225.75 357.92 227.96 C 354.52 229.88 350.33 227.58 347.91 225.11 C 345.41 219.01 349.34 212.87 348.79 206.64 L 348.92 206.36 C 349.65 204.69 350.51 202.94 350.07 201.06 C 349.33 196.30 349.49 191.38 348.18 186.72 C 346.35 181.95 346.61 176.75 345.51 171.81 C 344.68 160.42 342.15 149.01 343.60 137.57 C 344.29 131.51 349.48 127.34 351.57 121.93 C 351.60 121.45 351.65 120.48 351.68 120.00 C 351.97 116.47 351.10 112.76 352.21 109.35 Z"/>
<path fill="#fef665" d=" M 184.81 107.59 C 188.57 107.36 192.32 106.94 196.07 106.54 C 195.75 108.13 195.34 109.72 194.57 111.16 C 194.54 114.51 192.46 117.27 191.21 120.24 C 189.37 124.01 187.79 127.92 185.67 131.53 C 184.13 131.76 182.58 131.76 181.03 131.84 C 181.45 128.20 182.47 124.63 182.25 120.93 C 182.02 116.32 183.52 111.94 184.81 107.59 Z"/>
<path fill="#211715" d=" M 392.99 106.09 C 393.55 106.05 394.67 105.99 395.23 105.95 C 402.39 107.26 407.77 113.47 410.48 119.94 C 415.39 132.14 414.44 146.62 407.74 157.98 C 413.56 159.01 418.23 162.93 421.44 167.72 C 427.85 166.74 434.69 168.38 440.04 172.09 C 449.37 178.09 458.80 183.94 468.00 190.13 C 471.78 192.94 471.52 198.47 470.33 202.49 C 463.46 213.18 456.35 223.72 449.26 234.26 C 447.04 238.01 442.52 239.58 438.37 238.64 L 438.35 238.01 C 438.32 237.14 438.30 236.28 438.27 235.42 C 440.67 233.79 442.66 231.63 444.19 229.17 C 450.15 219.92 456.34 210.82 462.42 201.64 C 465.06 198.22 464.32 192.65 460.45 190.44 C 453.16 185.77 445.96 180.94 438.58 176.40 C 434.80 174.08 431.29 171.12 426.95 169.89 C 424.84 169.21 422.13 170.14 421.19 172.21 C 418.87 176.64 418.33 181.69 417.03 186.45 C 416.19 187.28 415.09 187.80 414.14 188.46 C 412.46 187.99 410.78 187.54 409.10 187.11 C 414.15 182.57 417.18 174.97 414.29 168.45 C 411.62 162.28 404.52 159.33 398.12 159.59 C 400.05 156.95 401.67 154.10 403.16 151.19 C 403.57 151.21 404.39 151.27 404.80 151.29 C 408.75 142.45 409.12 132.11 406.15 122.93 C 405.77 121.17 404.41 119.96 403.13 118.83 C 403.01 118.57 402.77 118.06 402.65 117.80 C 403.04 111.90 396.77 109.34 392.99 106.09 Z"/>
<path fill="#fffdfb" d=" M 257.53 117.76 C 257.78 114.11 256.96 109.10 261.09 107.29 C 265.13 106.64 262.90 112.02 263.39 114.34 C 262.05 116.40 260.14 118.00 257.53 117.76 Z"/>
<path fill="#fffdfb" d=" M 254.06 110.77 C 254.53 108.93 255.71 108.03 257.62 108.08 C 257.19 111.47 255.57 114.98 257.07 118.35 C 256.10 118.58 255.13 118.81 254.16 119.03 C 254.14 116.67 254.35 114.33 254.58 111.99 C 254.20 112.08 253.43 112.27 253.04 112.36 C 252.21 114.86 252.58 117.56 252.79 120.14 C 252.14 120.28 250.85 120.55 250.21 120.68 C 251.08 116.95 248.82 111.87 252.18 109.22 C 252.65 109.61 253.59 110.38 254.06 110.77 Z"/>
<path fill="#221817" d=" M 260.75 115.94 C 260.50 113.71 259.62 110.84 261.35 109.01 C 261.39 111.33 261.20 113.66 260.75 115.94 Z"/>
<path fill="#fcf663" d=" M 157.62 113.27 C 161.32 114.71 164.60 111.35 168.27 111.06 C 168.19 112.79 168.34 114.56 168.00 116.27 C 167.07 118.33 165.34 119.86 163.84 121.51 C 163.27 123.12 162.49 124.64 161.60 126.10 C 163.95 127.06 166.36 126.53 168.55 125.41 C 168.54 127.39 168.55 129.37 168.56 131.35 C 166.35 132.13 164.20 133.08 161.94 133.69 C 160.30 133.74 158.93 132.62 157.45 132.06 C 156.17 133.97 154.67 135.72 152.92 137.22 C 151.36 137.58 149.84 138.07 148.36 138.65 C 148.31 136.73 148.28 134.82 148.25 132.90 C 150.27 132.04 152.25 131.00 153.64 129.23 C 152.08 128.35 150.46 127.49 149.24 126.14 C 153.39 125.06 158.63 124.12 159.84 119.23 C 157.09 120.16 154.50 121.64 153.10 124.30 C 151.30 124.93 149.50 125.56 147.69 126.15 C 147.69 124.56 147.70 122.96 147.73 121.37 C 149.37 119.88 150.19 117.83 150.91 115.79 C 153.14 114.92 155.37 114.08 157.62 113.27 Z"/>
<path fill="#033c63" d=" M 374.61 113.68 C 379.26 111.16 385.01 109.54 390.13 111.61 C 395.71 113.85 399.31 119.34 400.80 124.99 C 403.46 135.36 402.14 147.09 395.65 155.84 C 390.09 163.28 382.58 169.40 373.93 172.86 C 376.06 169.59 379.95 168.37 382.87 165.98 C 387.01 162.62 391.41 159.30 394.12 154.59 C 395.88 151.89 398.05 149.29 398.55 146.01 C 398.71 145.20 398.87 144.41 399.05 143.61 C 401.13 139.77 400.80 135.25 400.43 131.05 C 399.94 126.24 398.20 121.56 395.18 117.76 C 392.70 114.72 388.90 112.92 385.01 112.69 C 381.81 112.66 378.75 113.73 375.72 114.60 C 375.45 114.37 374.89 113.91 374.61 113.68 Z"/>
<path fill="#fffdfb" d=" M 243.54 115.73 C 245.01 113.82 246.77 111.81 249.49 112.40 C 249.48 114.71 249.42 117.03 249.42 119.35 C 248.05 121.39 246.37 123.19 243.68 122.85 C 243.55 120.48 243.57 118.10 243.54 115.73 Z"/>
<path fill="#0064a1" d=" M 374.25 113.38 L 374.61 113.68 C 374.89 113.91 375.45 114.37 375.72 114.60 C 378.75 113.73 381.81 112.66 385.01 112.69 C 388.90 112.92 392.70 114.72 395.18 117.76 C 394.46 117.76 393.00 117.74 392.28 117.73 C 389.10 117.65 385.93 117.50 382.75 117.47 C 382.61 117.10 382.32 116.37 382.18 116.01 C 380.57 116.71 378.97 117.41 377.36 118.09 C 375.74 117.07 373.92 116.52 372.07 116.10 C 371.93 115.98 371.64 115.74 371.50 115.62 C 372.41 114.86 373.33 114.12 374.25 113.38 Z"/>
<path fill="#fffdfb" d=" M 236.57 125.81 C 237.53 121.95 236.90 117.70 238.05 113.99 C 238.64 113.78 239.81 113.36 240.40 113.15 L 240.14 115.22 C 240.70 114.98 241.82 114.48 242.38 114.23 C 243.36 116.59 242.60 119.45 242.48 121.98 C 242.28 124.90 238.54 124.77 236.57 125.81 Z"/>
<path fill="#221817" d=" M 245.66 121.03 C 245.93 118.66 246.12 116.19 247.18 114.02 C 247.20 115.07 247.22 116.13 247.22 117.19 C 246.76 118.49 246.51 119.90 245.66 121.03 Z"/>
<path fill="#211615" d=" M 204.04 117.93 C 206.35 115.38 209.87 114.76 213.13 114.56 C 215.16 115.76 217.76 117.23 217.68 119.95 C 219.08 127.58 210.93 135.42 203.37 132.49 C 198.41 128.98 200.16 121.58 204.04 117.93 Z"/>
<path fill="#004c7a" d=" M 293.17 120.12 C 295.39 115.94 301.96 113.04 305.56 117.20 L 306.09 119.01 C 304.45 118.45 302.83 117.89 301.21 117.33 C 300.53 118.02 299.86 118.72 299.19 119.42 C 292.89 124.22 294.60 132.96 295.76 139.72 C 295.45 139.53 294.84 139.15 294.53 138.96 L 293.74 138.47 C 293.10 132.44 289.91 125.91 293.17 120.12 Z"/>
<path fill="#e70412" d=" M 204.98 117.91 C 207.21 116.75 209.47 115.50 212.04 115.31 C 211.12 116.09 210.21 116.88 209.29 117.66 C 210.73 121.55 209.79 126.13 212.44 129.56 L 212.86 130.25 C 210.83 130.97 208.82 131.74 206.85 132.58 C 204.50 131.49 201.35 130.08 201.40 127.03 C 200.82 123.49 203.36 120.75 204.98 117.91 Z"/>
<path fill="#eb6541" d=" M 212.04 115.31 C 213.32 115.90 214.63 116.45 215.96 116.93 L 215.08 118.31 C 214.38 118.31 212.96 118.30 212.25 118.30 C 212.54 121.48 212.96 124.71 214.42 127.60 L 214.73 128.32 C 214.16 128.63 213.01 129.25 212.44 129.56 C 209.79 126.13 210.73 121.55 209.29 117.66 C 210.21 116.88 211.12 116.09 212.04 115.31 Z"/>
<path fill="#221817" d=" M 239.50 123.21 C 239.61 120.99 239.13 118.51 240.44 116.56 C 240.28 118.73 241.22 121.47 239.50 123.21 Z"/>
<path fill="#5686b2" d=" M 299.19 119.42 C 299.86 118.72 300.53 118.02 301.21 117.33 C 302.83 117.89 304.45 118.45 306.09 119.01 L 305.56 117.20 C 309.90 122.27 310.60 129.48 310.28 135.91 C 310.38 136.81 309.99 137.97 310.58 138.71 C 311.41 139.46 312.28 140.18 313.18 140.87 L 311.72 140.89 C 308.85 140.57 307.50 137.77 306.11 135.61 C 305.77 132.16 305.07 128.71 303.39 125.65 C 302.09 123.50 300.63 121.46 299.19 119.42 Z"/>
<path fill="#f6936a" d=" M 212.25 118.30 C 212.96 118.30 214.38 118.31 215.08 118.31 C 215.46 118.32 216.21 118.34 216.58 118.34 C 216.41 121.54 217.71 125.58 214.42 127.60 C 212.96 124.71 212.54 121.48 212.25 118.30 Z"/>
<path fill="#5591c3" d=" M 392.28 117.73 C 393.00 117.74 394.46 117.76 395.18 117.76 C 398.20 121.56 399.94 126.24 400.43 131.05 C 400.80 135.25 401.13 139.77 399.05 143.61 C 399.43 137.28 399.98 130.38 396.46 124.76 C 396.08 129.65 396.54 134.68 395.00 139.42 C 394.76 136.28 394.65 133.14 394.57 129.99 C 394.47 125.80 392.93 121.84 392.28 117.73 Z"/>
<path fill="#e8dfaf" d=" M 62.29 119.26 C 62.80 119.77 62.80 119.77 62.29 119.26 Z"/>
<path fill="#fdf865" d=" M 142.30 120.21 C 143.82 119.22 145.48 118.49 147.21 117.94 C 147.28 129.63 147.59 141.33 147.33 153.02 C 146.35 158.66 139.95 160.05 135.21 160.99 C 133.17 162.29 130.89 163.14 128.58 163.83 C 128.46 150.77 128.54 137.71 128.33 124.66 C 133.07 123.44 137.42 120.85 142.30 120.21 Z"/>
<path fill="#03609c" d=" M 369.11 122.26 C 372.11 121.56 374.66 118.78 377.92 120.29 C 376.89 120.69 375.88 121.09 374.86 121.49 C 378.54 121.80 382.22 124.29 382.95 128.00 C 382.63 133.67 382.40 139.35 383.02 145.02 C 383.69 148.70 380.27 150.83 378.08 153.11 C 375.55 154.82 372.91 156.60 369.99 157.52 C 366.93 157.57 363.50 158.53 360.69 156.97 C 368.09 156.47 375.69 153.38 380.52 147.61 C 380.54 147.06 380.58 145.94 380.60 145.39 C 380.36 144.05 380.06 142.72 379.62 141.44 L 379.30 140.58 C 378.36 139.27 377.28 138.06 376.38 136.73 C 377.61 134.63 379.63 133.12 380.79 130.98 C 380.86 129.63 380.75 128.29 380.62 126.95 C 379.28 125.35 377.25 124.10 375.08 124.54 C 368.29 125.75 362.27 129.94 358.51 135.69 C 358.12 135.82 357.34 136.09 356.96 136.22 C 357.11 133.73 357.03 130.93 359.08 129.12 C 362.01 126.35 365.15 123.41 369.11 122.26 Z"/>
<path fill="#080000" d=" M 403.13 118.83 C 404.41 119.96 405.77 121.17 406.15 122.93 C 409.12 132.11 408.75 142.45 404.80 151.29 C 404.39 151.27 403.57 151.21 403.16 151.19 C 407.49 140.96 407.20 129.09 403.13 118.83 Z"/>
<path fill="#0166a5" d=" M 295.76 139.72 C 294.60 132.96 292.89 124.22 299.19 119.42 C 300.63 121.46 302.09 123.50 303.39 125.65 C 302.91 125.63 301.94 125.59 301.46 125.56 C 300.22 127.29 298.73 128.91 298.00 130.94 C 297.36 133.70 297.82 136.58 297.22 139.35 C 296.16 142.31 293.50 144.23 291.54 146.55 C 289.33 148.93 288.63 152.20 287.48 155.14 L 286.58 155.51 C 285.92 153.97 285.27 152.43 284.60 150.90 C 285.90 146.13 291.39 145.13 293.44 140.98 C 293.71 140.47 294.26 139.46 294.53 138.96 C 294.84 139.15 295.45 139.53 295.76 139.72 Z"/>
<path fill="#0166a5" d=" M 347.66 122.88 C 348.78 122.45 349.89 121.99 351.07 121.71 L 351.57 121.93 C 349.48 127.34 344.29 131.51 343.60 137.57 C 342.15 149.01 344.68 160.42 345.51 171.81 C 346.61 176.75 346.35 181.95 348.18 186.72 C 349.49 191.38 349.33 196.30 350.07 201.06 C 350.51 202.94 349.65 204.69 348.92 206.36 C 347.04 198.69 346.15 190.82 344.69 183.07 C 343.18 172.37 340.94 161.76 340.44 150.95 C 340.18 144.97 338.67 138.75 340.84 132.93 C 341.99 129.48 345.01 127.23 347.28 124.55 C 347.36 124.19 347.53 123.47 347.61 123.10 L 347.66 122.88 Z"/>
<path fill="#033c63" d=" M 338.87 131.92 C 340.56 127.98 343.73 124.90 347.61 123.10 C 347.53 123.47 347.36 124.19 347.28 124.55 C 345.01 127.23 341.99 129.48 340.84 132.93 C 338.67 138.75 340.18 144.97 340.44 150.95 C 340.94 161.76 343.18 172.37 344.69 183.07 C 346.15 190.82 347.04 198.69 348.92 206.36 L 348.79 206.64 C 344.99 212.69 341.07 220.03 343.77 227.30 C 344.32 230.71 347.97 232.20 351.01 232.57 C 360.60 233.61 370.12 226.72 372.34 217.38 C 372.92 214.27 372.97 211.09 373.46 207.97 L 374.05 207.03 C 374.66 212.22 374.98 217.79 372.53 222.60 C 368.28 230.98 358.14 235.81 348.94 234.16 C 345.29 233.49 342.14 230.78 341.49 227.04 C 339.00 219.85 342.32 212.33 347.01 206.88 C 344.25 189.74 340.72 172.69 339.13 155.39 C 338.71 147.58 337.40 139.69 338.87 131.92 Z"/>
<path fill="#0075c2" d=" M 301.46 125.56 C 301.94 125.59 302.91 125.63 303.39 125.65 C 305.07 128.71 305.77 132.16 306.11 135.61 C 306.20 137.82 304.42 140.77 306.56 142.44 C 308.71 144.01 311.55 143.91 314.05 144.54 C 318.60 145.86 323.26 148.08 325.79 152.29 C 324.23 152.61 322.69 152.93 321.14 153.25 C 319.24 150.99 316.96 148.60 313.77 148.61 C 310.92 148.63 306.83 148.73 306.28 152.29 C 304.09 160.45 303.15 168.95 303.47 177.39 C 303.64 180.75 304.75 184.70 308.33 185.85 C 308.64 186.11 308.94 186.38 309.25 186.65 C 309.86 186.51 311.06 186.24 311.67 186.10 C 315.70 184.81 318.26 181.20 321.33 178.52 C 322.79 180.07 324.44 181.70 324.55 183.98 C 324.92 189.07 327.58 193.50 328.76 198.39 C 325.72 200.39 322.35 202.07 319.92 204.83 C 319.22 206.32 319.09 208.00 318.76 209.59 C 318.22 209.15 317.69 208.71 317.16 208.28 C 317.05 209.36 316.95 210.44 316.85 211.53 C 312.14 215.66 309.48 221.64 304.45 225.44 C 301.56 227.61 298.76 229.97 296.84 233.09 C 293.62 231.98 289.89 230.45 289.15 226.70 C 288.14 221.11 291.80 215.94 291.36 210.35 C 294.32 207.33 297.04 204.06 298.54 200.05 C 298.06 199.42 297.59 198.80 297.12 198.18 C 294.97 192.00 288.46 187.05 289.80 179.97 C 290.18 173.40 294.13 167.06 291.80 160.45 C 291.75 160.10 291.66 159.39 291.61 159.04 C 291.26 159.35 290.57 159.97 290.23 160.28 C 290.58 159.11 290.97 157.95 291.39 156.80 C 291.26 156.49 290.99 155.88 290.86 155.57 C 290.71 155.22 290.40 154.51 290.24 154.16 C 289.32 154.47 288.40 154.80 287.48 155.14 C 288.63 152.20 289.33 148.93 291.54 146.55 C 293.50 144.23 296.16 142.31 297.22 139.35 C 297.82 136.58 297.36 133.70 298.00 130.94 C 298.73 128.91 300.22 127.29 301.46 125.56 Z"/>
<path fill="#fcfdfd" d=" M 358.51 135.69 C 362.27 129.94 368.29 125.75 375.08 124.54 C 377.25 124.10 379.28 125.35 380.62 126.95 C 380.60 130.88 377.08 133.26 374.16 135.22 C 370.34 137.48 366.31 139.74 361.85 140.38 C 359.81 139.72 358.62 137.77 358.51 135.69 Z"/>
<path fill="#9bb4dd" d=" M 396.46 124.76 C 399.98 130.38 399.43 137.28 399.05 143.61 C 398.87 144.41 398.71 145.20 398.55 146.01 C 397.43 146.61 396.33 147.22 395.23 147.83 C 394.95 145.69 394.66 143.56 394.45 141.41 C 394.59 140.92 394.86 139.92 395.00 139.42 C 396.54 134.68 396.08 129.65 396.46 124.76 Z"/>
<path fill="#140c0a" d=" M 140.37 126.54 C 140.67 126.38 141.26 126.05 141.56 125.89 C 141.58 129.26 141.87 132.66 141.53 136.02 C 141.28 136.27 140.77 136.77 140.52 137.03 C 140.05 133.56 139.90 130.01 140.37 126.54 Z"/>
<path fill="#fdf764" d=" M 98.10 135.30 C 106.56 132.30 114.97 129.17 123.43 126.17 C 123.07 130.79 123.72 135.44 123.25 140.04 C 121.93 143.38 118.12 144.35 115.08 145.44 C 108.56 147.93 101.75 149.59 95.51 152.78 C 95.29 151.25 95.00 149.70 95.25 148.16 C 101.42 145.78 107.65 143.56 113.90 141.41 C 115.13 141.02 116.18 140.25 117.10 139.36 C 109.73 141.00 102.93 144.68 95.61 146.62 C 95.70 145.05 95.80 143.47 95.92 141.91 C 101.49 140.51 106.71 138.07 112.15 136.27 C 113.83 135.52 116.02 135.23 116.91 133.40 C 109.72 136.02 102.44 138.43 95.24 141.05 C 95.26 140.38 95.28 139.05 95.30 138.38 C 95.13 138.37 94.81 138.35 94.64 138.34 C 94.36 139.92 93.77 141.40 92.84 142.71 C 92.24 150.45 92.48 158.24 92.66 165.99 C 92.74 169.71 92.12 173.43 92.69 177.15 C 90.57 177.90 88.47 178.72 86.41 179.64 C 86.02 171.50 86.45 163.35 86.17 155.21 C 84.87 155.78 83.57 156.37 82.27 156.95 C 83.17 154.01 82.14 149.74 85.35 148.08 C 86.38 145.05 87.07 141.93 87.72 138.80 C 91.06 137.29 94.58 136.29 98.10 135.30 Z"/>
<path fill="#033c63" d=" M 380.62 126.95 C 380.75 128.29 380.86 129.63 380.79 130.98 C 379.63 133.12 377.61 134.63 376.38 136.73 C 377.28 138.06 378.36 139.27 379.30 140.58 L 379.62 141.44 C 376.10 139.49 372.25 141.40 368.98 142.92 C 365.21 144.90 361.08 146.86 358.66 150.53 C 357.46 152.69 359.09 154.61 360.74 155.86 C 368.15 154.51 375.76 151.36 380.60 145.39 C 380.58 145.94 380.54 147.06 380.52 147.61 C 375.69 153.38 368.09 156.47 360.69 156.97 C 359.40 156.57 358.44 155.60 357.45 154.75 C 357.44 153.02 357.32 151.29 357.48 149.57 C 358.77 147.69 360.30 145.96 361.38 143.93 C 360.98 141.53 358.64 139.95 357.45 137.88 C 357.33 137.46 357.08 136.64 356.96 136.22 C 357.34 136.09 358.12 135.82 358.51 135.69 C 358.62 137.77 359.81 139.72 361.85 140.38 C 366.31 139.74 370.34 137.48 374.16 135.22 C 377.08 133.26 380.60 130.88 380.62 126.95 Z"/>
<path fill="#080000" d=" M 363.82 135.79 C 366.45 131.87 371.29 129.39 375.86 128.56 C 372.67 132.11 368.15 134.04 363.82 135.79 Z"/>
<path fill="#483a0e" d=" M 133.83 128.39 L 135.53 128.56 C 135.44 131.88 135.47 135.21 135.56 138.54 L 133.89 138.70 C 133.89 135.26 133.88 131.83 133.83 128.39 Z"/>
<path fill="#a4b9d8" d=" M 337.93 147.93 C 337.65 142.61 336.50 136.94 338.87 131.92 C 337.40 139.69 338.71 147.58 339.13 155.39 C 337.76 153.15 338.30 150.40 337.93 147.93 Z"/>
<path fill="#fdf865" d=" M 148.47 139.59 C 154.96 136.76 161.84 134.53 168.55 132.08 C 168.55 136.43 168.62 140.78 168.64 145.13 C 168.92 148.18 166.17 150.46 163.59 151.46 C 158.44 153.25 153.42 155.42 148.23 157.09 C 148.60 151.26 148.07 145.41 148.47 139.59 Z"/>
<path fill="#fdf664" d=" M 176.79 135.44 C 180.61 134.37 184.61 134.58 188.52 134.23 C 187.50 137.29 186.37 140.33 185.72 143.51 C 181.93 144.14 177.97 143.34 174.30 144.66 C 175.18 141.60 176.20 138.57 176.79 135.44 Z"/>
<path fill="#6ca1dc" d=" M 306.11 135.61 C 307.50 137.77 308.85 140.57 311.72 140.89 C 312.50 142.11 313.27 143.32 314.05 144.54 C 311.55 143.91 308.71 144.01 306.56 142.44 C 304.42 140.77 306.20 137.82 306.11 135.61 Z"/>
<path fill="#0263a7" d=" M 357.45 137.88 C 358.64 139.95 360.98 141.53 361.38 143.93 C 360.30 145.96 358.77 147.69 357.48 149.57 C 356.50 145.74 356.41 141.70 357.45 137.88 Z"/>
<path fill="#033c63" d=" M 310.58 138.71 C 316.99 139.11 324.11 140.34 328.63 145.36 C 332.10 148.94 332.87 154.17 332.53 158.95 C 332.07 168.77 330.59 178.63 327.52 187.98 C 326.39 183.23 328.24 178.60 328.86 173.94 C 329.78 167.47 330.93 160.98 330.53 154.42 C 329.91 145.76 321.17 140.71 313.18 140.87 C 312.28 140.18 311.41 139.46 310.58 138.71 Z"/>
<path fill="#180d0e" d=" M 154.69 142.86 C 157.03 142.06 159.36 141.20 161.66 140.28 C 161.73 142.20 161.87 144.12 161.69 146.04 C 159.82 147.89 157.13 148.74 154.54 148.94 C 154.59 146.91 154.63 144.89 154.69 142.86 Z"/>
<path fill="#044f7e" d=" M 277.95 151.95 C 281.16 146.25 287.01 142.17 293.44 140.98 C 291.39 145.13 285.90 146.13 284.60 150.90 C 285.27 152.43 285.92 153.97 286.58 155.51 L 287.48 155.14 C 288.40 154.80 289.32 154.47 290.24 154.16 C 290.40 154.51 290.71 155.22 290.86 155.57 C 288.15 157.41 285.06 158.51 281.94 159.41 C 278.60 158.78 276.41 155.11 277.95 151.95 Z"/>
<path fill="#7097c4" d=" M 311.72 140.89 L 313.18 140.87 C 321.17 140.71 329.91 145.76 330.53 154.42 C 328.53 154.70 326.69 154.23 325.79 152.29 C 323.26 148.08 318.60 145.86 314.05 144.54 C 313.27 143.32 312.50 142.11 311.72 140.89 Z"/>
<path fill="#fefdfd" d=" M 368.98 142.92 C 372.25 141.40 376.10 139.49 379.62 141.44 C 380.06 142.72 380.36 144.05 380.60 145.39 C 375.76 151.36 368.15 154.51 360.74 155.86 C 359.09 154.61 357.46 152.69 358.66 150.53 C 361.08 146.86 365.21 144.90 368.98 142.92 Z"/>
<path fill="#5b4c24" d=" M 140.21 142.25 C 140.64 142.06 141.52 141.68 141.96 141.49 C 141.45 145.62 143.36 150.56 140.70 154.10 C 139.67 150.25 139.94 146.19 140.21 142.25 Z"/>
<path fill="#5092c3" d=" M 393.13 152.76 C 391.64 148.99 393.01 144.97 394.45 141.41 C 394.66 143.56 394.95 145.69 395.23 147.83 C 396.33 147.22 397.43 146.61 398.55 146.01 C 398.05 149.29 395.88 151.89 394.12 154.59 C 393.87 154.13 393.38 153.22 393.13 152.76 Z"/>
<path fill="#faf764" d=" M 93.51 154.63 C 103.58 150.54 113.98 147.27 124.13 143.37 C 124.16 145.37 124.20 147.37 124.28 149.38 C 121.81 150.32 118.87 152.82 116.29 150.92 C 111.20 152.93 105.97 154.53 100.94 156.64 C 99.57 159.38 96.23 159.65 93.71 160.71 C 93.68 158.68 93.63 156.65 93.51 154.63 Z"/>
<path fill="#140c0a" d=" M 134.25 144.22 C 134.55 144.26 135.17 144.33 135.48 144.36 C 135.54 148.00 135.78 151.66 135.42 155.30 C 135.15 155.47 134.63 155.81 134.36 155.98 C 134.19 152.06 134.29 148.14 134.25 144.22 Z"/>
<path fill="#0b0505" d=" M 374.82 144.40 C 374.69 144.99 374.56 145.58 374.43 146.17 C 371.00 147.89 367.77 150.32 363.87 150.84 C 367.05 147.96 371.12 146.45 374.82 144.40 Z"/>
<path fill="#0067a7" d=" M 306.28 152.29 C 306.83 148.73 310.92 148.63 313.77 148.61 C 316.96 148.60 319.24 150.99 321.14 153.25 C 322.69 152.93 324.23 152.61 325.79 152.29 C 326.69 154.23 328.53 154.70 330.53 154.42 C 330.93 160.98 329.78 167.47 328.86 173.94 C 328.24 178.60 326.39 183.23 327.52 187.98 C 327.58 188.53 327.65 189.08 327.73 189.63 C 330.37 192.35 335.12 193.78 335.63 198.01 C 334.74 203.09 328.70 203.27 324.87 204.89 C 326.92 205.02 328.97 205.13 331.03 205.14 C 328.24 205.72 325.39 205.81 322.58 206.16 L 321.29 206.38 C 320.26 208.88 319.43 211.46 318.55 214.02 C 318.13 213.40 317.27 212.15 316.85 211.53 C 316.95 210.44 317.05 209.36 317.16 208.28 C 317.69 208.71 318.22 209.15 318.76 209.59 C 319.09 208.00 319.22 206.32 319.92 204.83 C 322.35 202.07 325.72 200.39 328.76 198.39 C 327.58 193.50 324.92 189.07 324.55 183.98 C 324.44 181.70 322.79 180.07 321.33 178.52 C 318.26 181.20 315.70 184.81 311.67 186.10 C 314.82 180.91 318.70 175.83 319.48 169.63 C 320.10 164.03 319.76 157.58 315.64 153.29 C 314.82 152.23 313.38 152.53 312.24 152.43 C 310.83 152.03 309.41 151.66 307.97 151.46 C 307.55 151.67 306.70 152.09 306.28 152.29 Z"/>
<path fill="#201615" d=" M 200.75 151.78 C 205.71 149.70 211.11 150.95 216.17 151.89 C 220.87 153.09 223.68 157.40 225.86 161.40 C 236.78 158.88 248.39 157.99 259.39 160.25 C 264.16 163.83 269.90 166.64 272.69 172.23 C 274.55 176.23 277.37 181.17 274.82 185.47 C 273.73 177.93 270.72 170.00 264.03 165.72 C 255.54 160.10 244.71 161.03 235.10 162.32 C 229.96 163.08 224.87 164.12 219.87 165.52 C 218.22 160.97 216.02 155.80 211.21 153.86 C 204.48 151.75 196.62 155.19 193.40 161.42 C 191.59 164.49 191.29 168.09 191.15 171.57 C 179.38 174.36 166.09 176.28 157.71 185.95 C 158.05 188.34 158.32 190.74 158.49 193.15 C 158.46 193.78 158.42 195.02 158.40 195.65 C 156.92 194.93 155.90 193.72 155.97 192.02 C 155.50 188.95 155.17 185.56 157.26 182.98 C 158.94 180.59 161.46 179.00 163.92 177.53 C 171.49 173.27 180.03 171.21 188.50 169.56 C 188.83 161.97 193.31 154.30 200.75 151.78 Z"/>
<path fill="#fefefe" d=" M 307.97 151.46 C 309.41 151.66 310.83 152.03 312.24 152.43 C 318.21 156.56 318.34 164.60 317.01 171.03 C 316.12 176.95 312.20 181.65 309.25 186.65 C 308.94 186.38 308.64 186.11 308.33 185.85 C 306.88 183.07 305.36 180.18 305.37 176.96 C 305.10 168.38 307.53 160.00 307.97 151.46 Z"/>
<path fill="#fef764" d=" M 109.00 156.14 C 113.28 154.01 117.84 152.53 122.42 151.17 C 122.42 152.81 122.43 154.44 122.43 156.07 C 119.91 158.57 116.48 160.44 115.01 163.79 C 118.11 163.03 121.01 161.56 124.19 161.16 C 124.18 162.83 124.17 164.50 124.16 166.17 C 118.87 167.25 113.90 171.62 108.31 169.54 C 104.68 173.72 99.34 175.22 94.35 177.08 C 94.20 175.30 94.05 173.52 93.89 171.75 C 96.40 170.67 99.11 170.00 101.47 168.57 C 99.26 168.02 97.01 167.63 94.79 167.17 C 98.92 165.57 103.13 164.09 107.44 163.03 C 108.94 162.72 109.79 161.33 110.81 160.32 C 105.72 161.88 100.74 163.78 95.73 165.56 C 95.71 163.94 95.70 162.33 95.69 160.71 C 100.05 159.00 104.44 157.27 109.00 156.14 Z"/>
<path fill="#114670" d=" M 306.28 152.29 C 306.70 152.09 307.55 151.67 307.97 151.46 C 307.53 160.00 305.10 168.38 305.37 176.96 C 305.36 180.18 306.88 183.07 308.33 185.85 C 304.75 184.70 303.64 180.75 303.47 177.39 C 303.15 168.95 304.09 160.45 306.28 152.29 Z"/>
<path fill="#12476d" d=" M 312.24 152.43 C 313.38 152.53 314.82 152.23 315.64 153.29 C 319.76 157.58 320.10 164.03 319.48 169.63 C 318.70 175.83 314.82 180.91 311.67 186.10 C 311.06 186.24 309.86 186.51 309.25 186.65 C 312.20 181.65 316.12 176.95 317.01 171.03 C 318.34 164.60 318.21 156.56 312.24 152.43 Z"/>
<path fill="#fefefd" d=" M 193.40 161.42 C 196.62 155.19 204.48 151.75 211.21 153.86 C 216.02 155.80 218.22 160.97 219.87 165.52 C 224.87 164.12 229.96 163.08 235.10 162.32 C 244.71 161.03 255.54 160.10 264.03 165.72 C 270.72 170.00 273.73 177.93 274.82 185.47 C 276.09 194.69 274.97 203.99 273.97 213.18 C 272.00 224.14 270.60 235.28 267.37 245.96 C 263.79 255.87 256.71 264.33 247.86 270.00 C 239.78 274.57 230.37 277.78 220.99 276.41 C 215.21 275.60 210.16 271.78 207.25 266.81 C 203.82 259.43 204.71 250.64 208.58 243.62 C 211.08 239.21 214.73 235.58 218.84 232.66 C 220.48 231.60 222.14 230.55 223.73 229.40 C 234.68 222.74 241.09 210.88 244.42 198.85 C 245.16 195.42 244.83 191.88 244.37 188.44 C 235.81 188.78 228.19 193.31 220.50 196.65 C 219.05 204.71 217.19 212.69 215.08 220.61 C 214.07 223.91 213.06 227.21 212.14 230.54 C 210.95 234.29 209.50 237.95 208.13 241.63 C 206.84 244.59 205.61 247.56 204.41 250.56 C 199.88 261.01 194.00 271.26 185.16 278.68 C 184.98 278.79 184.61 279.02 184.43 279.14 C 180.17 281.86 174.99 283.47 169.94 282.30 C 163.41 280.72 158.26 275.95 153.97 271.01 C 150.77 267.77 150.89 262.95 149.67 258.84 C 147.92 252.40 151.93 246.38 155.20 241.18 C 161.79 232.04 169.69 223.95 177.05 215.44 C 170.46 216.28 162.53 216.34 158.05 210.55 C 157.47 209.78 156.90 209.00 156.34 208.21 C 156.89 205.26 157.43 202.31 158.10 199.38 C 158.57 204.19 160.76 209.39 165.63 211.15 C 173.06 213.28 180.58 210.40 187.39 207.55 L 188.09 207.48 C 187.26 208.68 186.42 209.89 185.56 211.08 C 181.65 216.27 177.57 221.34 173.14 226.10 C 166.72 233.72 159.31 240.77 154.98 249.88 C 152.10 255.64 152.58 263.09 156.90 268.01 C 161.11 272.85 166.26 278.03 173.03 278.53 C 179.98 278.78 185.33 273.43 189.44 268.49 C 196.57 258.92 201.67 247.94 205.43 236.66 L 205.44 236.65 C 210.81 222.87 214.34 208.40 216.66 193.81 C 223.95 190.53 231.09 186.71 238.91 184.80 C 241.98 184.15 246.16 183.85 247.96 187.03 C 250.42 192.85 248.91 199.45 246.86 205.16 C 243.44 214.14 238.73 223.03 231.05 229.08 C 225.07 234.14 217.30 237.34 213.07 244.23 C 208.40 250.90 207.44 260.87 212.73 267.47 C 215.93 271.32 221.22 272.81 226.07 272.62 C 240.78 271.83 254.80 262.75 261.29 249.48 C 264.70 243.32 265.66 236.28 266.97 229.48 C 267.28 228.03 267.54 226.57 267.77 225.12 C 270.13 211.31 272.74 197.07 270.25 183.10 C 268.97 175.73 264.20 168.53 256.62 166.61 C 243.71 163.43 230.58 167.41 217.90 169.83 C 217.55 169.78 216.86 169.69 216.51 169.65 C 215.36 165.41 214.62 160.06 210.26 157.87 C 205.86 156.20 200.62 158.23 197.78 161.82 C 194.90 165.67 195.05 170.71 195.25 175.28 C 189.39 176.17 183.59 177.35 177.86 178.84 C 172.35 180.17 167.06 182.62 162.79 186.39 C 161.03 188.43 159.81 190.83 158.49 193.15 C 158.32 190.74 158.05 188.34 157.71 185.95 C 166.09 176.28 179.38 174.36 191.15 171.57 C 191.29 168.09 191.59 164.49 193.40 161.42 Z"/>
<path fill="#03609c" d=" M 381.97 162.90 C 385.84 159.69 389.61 156.36 393.13 152.76 C 393.38 153.22 393.87 154.13 394.12 154.59 C 391.41 159.30 387.01 162.62 382.87 165.98 C 379.95 168.37 376.06 169.59 373.93 172.86 L 373.40 173.52 L 372.38 173.12 C 372.01 172.96 371.27 172.65 370.90 172.50 C 373.68 168.30 378.59 166.48 381.97 162.90 Z"/>
<path fill="#204e7a" d=" M 197.78 161.82 C 200.62 158.23 205.86 156.20 210.26 157.87 C 214.62 160.06 215.36 165.41 216.51 169.65 C 215.88 169.05 215.26 168.45 214.66 167.85 C 213.72 164.68 212.58 161.57 211.02 158.65 C 208.67 159.28 206.31 159.86 204.00 160.60 C 199.28 162.78 195.48 168.30 197.32 173.59 C 195.79 176.99 191.86 177.85 188.73 179.12 C 185.15 179.67 181.53 179.96 178.03 180.89 C 177.99 180.38 177.90 179.36 177.86 178.84 C 183.59 177.35 189.39 176.17 195.25 175.28 C 195.05 170.71 194.90 165.67 197.78 161.82 Z"/>
<path fill="#080502" d=" M 311.64 157.64 C 314.27 160.85 313.68 165.35 313.19 169.18 C 312.48 172.30 311.84 175.74 309.46 178.09 C 309.33 171.22 310.53 164.39 311.64 157.64 Z"/>
<path fill="#6889ad" d=" M 204.00 160.60 C 206.31 159.86 208.67 159.28 211.02 158.65 C 212.58 161.57 213.72 164.68 214.66 167.85 C 213.35 167.20 212.02 166.62 210.70 166.02 C 209.23 165.30 207.82 164.47 206.51 163.50 C 205.64 162.56 204.82 161.57 204.00 160.60 Z"/>
<path fill="#023d65" d=" M 290.23 160.28 C 290.57 159.97 291.26 159.35 291.61 159.04 C 291.66 159.39 291.75 160.10 291.80 160.45 C 289.32 169.35 285.02 178.55 287.22 187.94 C 288.20 193.08 293.26 195.44 297.12 198.18 C 297.59 198.80 298.06 199.42 298.54 200.05 C 297.04 204.06 294.32 207.33 291.36 210.35 C 287.51 214.62 283.85 219.92 284.46 225.97 C 283.98 234.16 295.00 239.32 301.50 234.97 C 305.44 233.19 309.28 230.80 311.56 227.00 C 312.40 225.84 313.18 224.64 313.98 223.45 C 316.36 220.78 317.49 217.37 318.55 214.02 C 319.43 211.46 320.26 208.88 321.29 206.38 L 322.58 206.16 C 319.83 217.14 315.51 229.00 305.42 235.28 C 300.78 238.64 294.08 240.13 288.99 236.90 C 284.79 234.55 281.76 229.86 282.29 224.94 C 282.79 216.55 288.79 210.02 294.01 203.98 C 294.98 202.57 297.26 201.57 296.74 199.57 C 293.75 197.88 290.35 196.63 288.09 193.91 C 285.24 190.65 284.40 186.13 284.75 181.93 C 286.15 174.76 287.39 167.55 289.82 160.64 L 290.23 160.28 Z"/>
<path fill="#015b8f" d=" M 197.32 173.59 C 195.48 168.30 199.28 162.78 204.00 160.60 C 204.82 161.57 205.64 162.56 206.51 163.50 C 202.98 166.40 199.61 169.59 197.32 173.59 Z"/>
<path fill="#211715" d=" M 259.39 160.25 C 267.92 160.82 275.18 166.80 279.09 174.15 C 278.16 181.13 281.25 187.80 281.12 194.77 C 281.55 194.53 282.41 194.05 282.84 193.80 C 283.15 194.23 283.76 195.07 284.07 195.49 C 283.75 196.16 283.12 197.49 282.80 198.15 C 282.11 200.77 282.20 203.51 282.01 206.20 C 282.25 206.37 282.74 206.71 282.98 206.88 C 283.49 207.24 284.51 207.96 285.02 208.32 C 284.34 209.22 283.64 210.12 282.92 211.00 C 280.85 211.94 279.01 213.39 279.08 215.89 C 278.53 222.11 276.08 228.44 277.94 234.64 C 276.10 244.28 273.08 253.97 266.72 261.66 C 256.10 274.97 237.89 282.85 220.98 278.85 C 228.41 279.05 235.80 277.51 242.70 274.79 C 244.83 273.77 247.67 272.74 247.86 270.00 C 256.71 264.33 263.79 255.87 267.37 245.96 C 267.70 246.45 268.37 247.44 268.71 247.93 C 271.10 241.38 272.40 234.52 273.71 227.69 C 274.56 222.93 276.38 217.79 273.97 213.18 C 274.97 203.99 276.09 194.69 274.82 185.47 C 277.37 181.17 274.55 176.23 272.69 172.23 C 269.90 166.64 264.16 163.83 259.39 160.25 Z"/>
<path fill="#0064a6" d=" M 287.22 187.94 C 285.02 178.55 289.32 169.35 291.80 160.45 C 294.13 167.06 290.18 173.40 289.80 179.97 C 288.46 187.05 294.97 192.00 297.12 198.18 C 293.26 195.44 288.20 193.08 287.22 187.94 Z"/>
<path fill="#0075c2" d=" M 197.32 173.59 C 199.61 169.59 202.98 166.40 206.51 163.50 C 207.82 164.47 209.23 165.30 210.70 166.02 C 212.30 169.43 212.99 173.82 216.75 175.59 C 225.97 172.77 235.69 172.22 245.28 172.13 C 251.63 171.98 257.29 174.92 262.80 177.66 C 263.33 177.89 264.38 178.33 264.91 178.56 C 264.24 178.99 263.58 179.43 262.93 179.89 C 266.29 188.00 266.23 197.01 265.36 205.60 C 264.92 210.85 263.86 216.16 264.75 221.42 C 265.25 224.40 264.92 227.42 264.82 230.42 C 264.43 232.33 263.94 234.23 263.27 236.07 C 263.42 233.65 263.43 231.24 263.48 228.83 C 263.04 228.68 262.15 228.39 261.71 228.24 C 258.90 234.79 256.29 241.51 252.28 247.45 C 249.62 251.53 246.45 255.26 243.90 259.41 C 245.12 260.03 246.38 260.17 247.68 259.82 C 244.55 262.51 240.09 261.83 236.52 263.57 C 230.99 266.17 223.82 266.01 218.99 262.03 C 216.39 259.01 216.42 254.47 217.73 250.88 C 219.18 245.84 223.88 242.96 227.33 239.38 C 229.43 237.02 232.58 236.07 234.91 234.05 C 237.01 231.09 239.53 228.51 242.18 226.05 C 246.79 218.91 249.90 210.93 252.79 202.97 C 253.72 197.91 253.28 192.72 252.73 187.64 C 252.10 187.40 250.85 186.92 250.22 186.68 C 249.00 185.66 247.88 184.52 246.84 183.31 C 246.03 182.34 245.24 181.33 244.46 180.34 C 239.51 179.95 234.44 180.06 229.71 181.74 C 223.94 183.72 217.65 185.88 213.91 191.01 C 211.48 194.94 209.15 199.13 208.83 203.84 C 208.43 208.81 205.65 213.16 205.31 218.14 C 202.75 226.82 199.38 235.25 196.70 243.89 C 195.61 246.28 193.53 248.12 192.81 250.71 C 190.78 257.04 186.18 262.06 181.44 266.52 C 178.69 269.14 174.85 270.98 170.99 270.18 C 163.47 267.55 158.25 258.00 162.51 250.62 C 166.64 242.81 172.26 235.79 178.47 229.53 C 180.97 226.86 181.90 222.89 185.41 221.18 C 186.06 218.56 186.47 215.83 185.87 213.15 C 185.79 212.63 185.64 211.59 185.56 211.08 C 186.42 209.89 187.26 208.68 188.09 207.48 L 187.39 207.55 C 185.88 207.59 184.37 207.59 182.87 207.58 C 179.73 204.81 175.11 206.58 171.72 204.39 C 169.74 203.12 167.06 201.65 167.13 198.94 C 166.75 195.63 167.82 192.42 169.26 189.50 C 168.24 189.16 167.22 188.83 166.21 188.48 C 167.53 188.35 168.86 188.17 170.17 187.91 C 176.48 186.47 182.58 184.22 188.40 181.37 C 188.48 180.81 188.64 179.69 188.73 179.12 C 191.86 177.85 195.79 176.99 197.32 173.59 Z"/>
<path fill="#072e59" d=" M 389.53 170.93 C 391.61 166.24 396.80 162.70 402.03 163.83 C 406.01 164.93 410.34 167.55 411.10 171.95 C 412.15 178.56 407.16 185.37 400.61 186.57 C 403.00 184.26 405.46 182.03 407.97 179.85 C 409.58 177.28 410.22 174.01 409.11 171.13 C 408.18 169.41 406.58 168.22 405.15 166.97 C 402.22 165.61 398.63 165.09 395.71 166.74 C 392.89 168.30 391.58 171.40 390.10 174.09 C 389.96 173.30 389.67 171.72 389.53 170.93 Z"/>
<path fill="#618dbd" d=" M 210.70 166.02 C 212.02 166.62 213.35 167.20 214.66 167.85 C 215.26 168.45 215.88 169.05 216.51 169.65 C 216.86 169.69 217.55 169.78 217.90 169.83 C 217.78 170.34 217.52 171.37 217.39 171.88 C 226.88 170.21 236.35 168.04 245.99 167.58 C 253.70 167.33 263.34 169.62 266.21 177.74 L 264.91 178.56 C 264.38 178.33 263.33 177.89 262.80 177.66 C 263.32 172.75 258.27 170.63 254.33 169.74 C 249.60 169.00 244.73 169.18 240.03 170.07 C 241.76 170.79 243.50 171.52 245.28 172.13 C 235.69 172.22 225.97 172.77 216.75 175.59 C 212.99 173.82 212.30 169.43 210.70 166.02 Z"/>
<path fill="#1b5884" d=" M 217.90 169.83 C 230.58 167.41 243.71 163.43 256.62 166.61 C 264.20 168.53 268.97 175.73 270.25 183.10 C 272.74 197.07 270.13 211.31 267.77 225.12 C 265.16 219.18 268.70 213.09 268.65 207.01 C 268.87 197.28 270.57 186.84 266.21 177.74 C 263.34 169.62 253.70 167.33 245.99 167.58 C 236.35 168.04 226.88 170.21 217.39 171.88 C 217.52 171.37 217.78 170.34 217.90 169.83 Z"/>
<path fill="#00578b" d=" M 395.71 166.74 C 398.63 165.09 402.22 165.61 405.15 166.97 L 404.76 168.24 C 401.64 170.31 397.84 170.79 394.30 171.76 C 392.79 176.16 392.34 180.83 391.04 185.29 C 388.46 180.97 388.09 175.70 389.53 170.93 C 389.67 171.72 389.96 173.30 390.10 174.09 C 391.58 171.40 392.89 168.30 395.71 166.74 Z"/>
<path fill="#140c0a" d=" M 332.51 186.11 C 334.25 179.83 335.24 173.39 336.08 166.94 C 337.92 175.20 338.25 183.74 340.50 191.93 C 337.95 189.83 335.71 187.26 332.51 186.11 Z"/>
<path fill="#7590b9" d=" M 405.15 166.97 C 406.58 168.22 408.18 169.41 409.11 171.13 C 410.22 174.01 409.58 177.28 407.97 179.85 C 407.36 179.44 406.14 178.62 405.53 178.21 C 405.31 174.88 404.88 171.57 404.76 168.24 L 405.15 166.97 Z"/>
<path fill="#8da8d0" d=" M 240.03 170.07 C 244.73 169.18 249.60 169.00 254.33 169.74 C 258.27 170.63 263.32 172.75 262.80 177.66 C 257.29 174.92 251.63 171.98 245.28 172.13 C 243.50 171.52 241.76 170.79 240.03 170.07 Z"/>
<path fill="#1f1614" d=" M 133.17 171.20 C 136.48 169.99 139.94 170.94 143.28 171.42 C 143.68 172.88 144.08 174.34 144.43 175.81 C 140.78 172.74 135.28 172.40 131.25 174.92 C 125.72 177.83 122.79 183.64 120.03 188.95 C 113.96 201.90 106.52 214.33 96.92 224.99 C 92.26 229.68 87.69 234.72 81.70 237.75 C 74.74 241.59 66.67 242.91 58.79 242.70 C 56.90 238.03 55.24 233.28 53.36 228.62 C 52.19 225.75 49.16 223.17 45.92 223.70 C 42.48 224.50 39.80 226.98 37.16 229.17 C 27.07 238.10 16.71 246.72 6.81 255.85 C 3.43 258.67 3.29 264.42 6.35 267.51 C 16.47 278.80 26.62 290.05 36.88 301.21 C 39.22 303.84 43.31 305.67 46.62 303.72 C 50.62 301.35 52.20 296.63 55.31 293.37 C 61.05 294.41 66.27 297.37 72.01 298.39 C 75.36 298.69 78.07 296.34 80.14 294.01 C 87.61 285.64 94.80 277.02 102.41 268.78 C 101.40 275.59 100.54 282.42 99.00 289.13 C 97.25 297.22 95.89 306.41 100.40 313.87 C 105.34 321.81 114.56 327.47 124.10 326.73 C 129.22 326.59 133.97 323.99 137.54 320.43 C 137.81 320.99 138.33 322.11 138.59 322.67 C 134.47 326.51 129.08 328.36 123.69 329.60 C 115.12 329.07 106.67 325.45 101.11 318.79 C 95.83 312.89 93.97 304.47 95.27 296.77 C 95.75 292.90 96.66 289.09 97.30 285.25 C 90.67 289.59 87.67 298.20 80.06 301.19 C 73.36 302.46 67.03 299.22 60.72 297.55 C 57.15 301.37 54.70 307.58 48.62 307.71 C 43.88 307.20 38.49 306.67 35.22 302.74 C 25.50 292.14 15.85 281.46 6.15 270.83 C 3.18 267.81 0.50 263.49 2.13 259.13 C 3.07 256.92 3.98 254.14 6.46 253.25 L 6.58 252.81 C 14.37 246.02 22.14 239.19 29.94 232.40 C 34.56 228.74 38.57 224.18 43.96 221.61 C 46.57 220.41 49.34 221.76 52.00 221.99 C 55.62 222.16 58.77 224.72 60.14 228.01 C 61.86 231.95 63.35 236.00 64.86 240.03 C 67.49 239.79 70.31 239.75 72.55 238.14 C 73.56 238.05 74.58 237.97 75.60 237.90 C 76.53 237.33 77.46 236.77 78.40 236.22 C 79.44 236.00 80.47 235.74 81.49 235.46 C 83.60 233.24 87.26 232.34 88.23 229.28 C 90.79 226.05 94.96 224.42 97.28 220.88 C 99.64 217.32 102.82 214.27 104.54 210.32 C 105.90 209.82 106.85 208.85 107.29 207.46 C 111.32 200.59 115.02 193.53 118.49 186.36 C 121.58 179.98 126.10 173.46 133.17 171.20 Z"/>
<path fill="#0d0c09" d=" M 378.89 175.17 C 381.18 174.08 383.32 172.73 385.44 171.33 C 384.61 174.07 384.49 176.92 384.58 179.77 C 382.65 178.29 380.22 177.29 378.89 175.17 Z"/>
<path fill="#211715" d=" M 143.28 171.42 C 148.10 171.95 152.33 175.14 154.69 179.30 C 155.49 180.56 155.97 182.10 157.26 182.98 C 155.17 185.56 155.50 188.95 155.97 192.02 C 155.90 193.72 156.92 194.93 158.40 195.65 C 158.33 196.89 158.22 198.14 158.10 199.38 C 157.43 202.31 156.89 205.26 156.34 208.21 C 156.90 209.00 157.47 209.78 158.05 210.55 C 157.49 210.90 156.36 211.59 155.79 211.94 C 151.89 221.31 149.62 231.87 142.81 239.73 C 143.26 241.38 143.93 242.96 144.79 244.43 C 146.49 247.29 145.58 250.82 147.25 253.70 C 148.06 260.77 148.83 268.76 153.83 274.25 L 153.19 273.92 L 153.23 274.17 C 154.03 284.38 155.17 294.74 153.11 304.90 C 151.85 311.48 149.08 317.75 145.22 323.22 C 139.03 327.54 131.49 331.79 123.69 329.60 C 129.08 328.36 134.47 326.51 138.59 322.67 C 138.33 322.11 137.81 320.99 137.54 320.43 C 138.45 319.45 139.32 318.43 140.13 317.38 C 140.56 317.49 141.42 317.70 141.85 317.81 C 144.62 313.14 146.73 308.05 147.41 302.64 C 149.96 281.02 145.44 259.21 138.25 238.89 C 138.86 236.27 140.99 234.00 140.34 231.16 C 140.64 230.45 140.94 229.75 141.26 229.05 C 141.61 229.26 142.31 229.67 142.66 229.88 C 148.24 217.65 152.62 204.57 152.80 191.01 C 152.84 186.60 151.12 182.40 148.96 178.64 C 148.49 178.65 147.54 178.67 147.06 178.68 C 146.18 177.72 145.33 176.75 144.43 175.81 C 144.08 174.34 143.68 172.88 143.28 171.42 Z"/>
<path fill="#fffefd" d=" M 131.25 174.92 C 135.28 172.40 140.78 172.74 144.43 175.81 C 145.33 176.75 146.18 177.72 147.06 178.68 C 152.25 185.73 151.09 194.99 149.75 203.09 C 148.18 212.09 145.31 220.86 141.26 229.05 C 140.94 229.75 140.64 230.45 140.34 231.16 C 139.07 233.49 137.75 235.78 136.39 238.06 C 141.63 253.91 146.07 270.24 146.70 287.00 C 147.05 297.40 146.13 308.52 140.13 317.38 C 139.32 318.43 138.45 319.45 137.54 320.43 C 133.97 323.99 129.22 326.59 124.10 326.73 C 114.56 327.47 105.34 321.81 100.40 313.87 C 95.89 306.41 97.25 297.22 99.00 289.13 C 100.54 282.42 101.40 275.59 102.41 268.78 C 94.80 277.02 87.61 285.64 80.14 294.01 C 78.07 296.34 75.36 298.69 72.01 298.39 C 66.27 297.37 61.05 294.41 55.31 293.37 C 52.20 296.63 50.62 301.35 46.62 303.72 C 43.31 305.67 39.22 303.84 36.88 301.21 C 26.62 290.05 16.47 278.80 6.35 267.51 C 3.29 264.42 3.43 258.67 6.81 255.85 C 16.71 246.72 27.07 238.10 37.16 229.17 C 39.80 226.98 42.48 224.50 45.92 223.70 C 49.16 223.17 52.19 225.75 53.36 228.62 C 55.24 233.28 56.90 238.03 58.79 242.70 C 66.67 242.91 74.74 241.59 81.70 237.75 C 87.69 234.72 92.26 229.68 96.92 224.99 C 106.52 214.33 113.96 201.90 120.03 188.95 C 122.79 183.64 125.72 177.83 131.25 174.92 Z"/>
<path fill="#03558e" d=" M 369.71 174.35 C 370.67 174.93 371.62 175.51 372.56 176.12 C 377.92 180.40 383.63 184.18 390.07 186.63 C 387.06 186.69 383.93 186.94 381.05 185.86 C 375.73 184.02 372.38 179.02 369.71 174.35 Z"/>
<path fill="#072e59" d=" M 420.51 189.65 C 422.35 184.33 421.99 177.88 425.77 173.38 C 437.24 180.00 448.15 187.52 459.34 194.60 C 459.71 195.39 460.09 196.18 460.47 196.98 C 459.30 198.98 458.05 200.94 456.56 202.72 C 456.94 200.50 457.66 198.35 458.01 196.13 C 457.17 195.36 456.26 194.69 455.34 194.07 C 452.97 192.64 450.60 191.21 448.40 189.54 C 443.74 186.15 438.65 183.41 433.95 180.07 C 431.52 178.17 428.40 178.17 425.48 178.27 C 423.90 182.65 423.34 187.67 420.19 191.28 C 415.84 194.72 408.56 194.22 404.60 190.43 C 405.26 190.47 406.56 190.57 407.22 190.62 L 407.91 191.14 C 409.97 191.54 411.98 192.15 414.04 192.55 C 416.35 192.02 418.49 190.86 420.51 189.65 Z"/>
<path fill="#29445f" d=" M 125.14 188.49 C 127.12 183.65 130.69 178.57 136.08 177.41 C 140.47 176.47 143.65 180.34 145.28 183.88 C 145.14 184.48 144.86 185.69 144.73 186.30 C 143.36 183.74 142.00 180.64 139.02 179.65 C 136.38 178.79 133.77 180.22 131.78 181.85 C 129.40 183.89 127.51 186.43 125.14 188.49 Z"/>
<path fill="#080000" d=" M 147.06 178.68 C 147.54 178.67 148.49 178.65 148.96 178.64 C 151.12 182.40 152.84 186.60 152.80 191.01 C 152.62 204.57 148.24 217.65 142.66 229.88 C 142.31 229.67 141.61 229.26 141.26 229.05 C 145.31 220.86 148.18 212.09 149.75 203.09 C 151.09 194.99 152.25 185.73 147.06 178.68 Z"/>
<path fill="#02619b" d=" M 264.91 178.56 L 266.21 177.74 C 270.57 186.84 268.87 197.28 268.65 207.01 C 268.70 213.09 265.16 219.18 267.77 225.12 C 267.54 226.57 267.28 228.03 266.97 229.48 C 266.44 229.71 265.36 230.19 264.82 230.42 C 264.92 227.42 265.25 224.40 264.75 221.42 C 263.86 216.16 264.92 210.85 265.36 205.60 C 266.23 197.01 266.29 188.00 262.93 179.89 C 263.58 179.43 264.24 178.99 264.91 178.56 Z"/>
<path fill="#00639e" d=" M 425.48 178.27 C 428.40 178.17 431.52 178.17 433.95 180.07 C 438.65 183.41 443.74 186.15 448.40 189.54 L 448.54 191.05 C 445.08 190.32 441.07 189.98 439.07 186.64 C 435.82 185.67 432.53 184.82 429.24 184.01 C 426.02 186.94 423.46 190.46 420.64 193.73 C 417.90 195.10 414.75 196.09 411.67 196.02 C 406.72 193.90 401.61 192.07 396.99 189.26 C 397.22 189.09 397.68 188.74 397.91 188.56 C 400.00 188.85 402.05 189.41 404.10 189.95 L 404.60 190.43 C 408.56 194.22 415.84 194.72 420.19 191.28 C 423.34 187.67 423.90 182.65 425.48 178.27 Z"/>
<path fill="#43709f" d=" M 162.79 186.39 C 167.06 182.62 172.35 180.17 177.86 178.84 C 177.90 179.36 177.99 180.38 178.03 180.89 C 175.18 182.43 172.30 183.93 169.41 185.40 C 169.60 186.03 169.98 187.29 170.17 187.91 C 168.86 188.17 167.53 188.35 166.21 188.48 L 165.11 188.08 C 164.53 187.66 163.37 186.81 162.79 186.39 Z"/>
<path fill="#7198c6" d=" M 178.03 180.89 C 181.53 179.96 185.15 179.67 188.73 179.12 C 188.64 179.69 188.48 180.81 188.40 181.37 C 182.58 184.22 176.48 186.47 170.17 187.91 C 169.98 187.29 169.60 186.03 169.41 185.40 C 172.30 183.93 175.18 182.43 178.03 180.89 Z"/>
<path fill="#95a3c4" d=" M 131.78 181.85 C 133.77 180.22 136.38 178.79 139.02 179.65 C 142.00 180.64 143.36 183.74 144.73 186.30 C 144.71 187.80 144.70 189.31 144.70 190.82 C 143.74 190.77 141.83 190.66 140.87 190.61 C 139.81 188.71 138.98 186.69 138.14 184.69 C 135.86 184.10 133.57 183.56 131.27 183.06 L 131.78 181.85 Z"/>
<path fill="#00639f" d=" M 229.71 181.74 C 234.44 180.06 239.51 179.95 244.46 180.34 C 245.24 181.33 246.03 182.34 246.84 183.31 C 242.36 183.10 237.72 182.90 233.45 184.55 C 227.98 186.54 222.41 188.49 217.45 191.60 C 213.78 193.84 214.36 198.69 213.48 202.34 C 211.44 212.24 208.17 221.85 205.40 231.56 C 204.86 233.22 205.32 234.96 205.44 236.65 L 205.43 236.66 C 204.28 237.77 202.89 238.76 202.31 240.33 C 199.68 246.55 197.53 253.05 193.76 258.72 C 189.68 265.59 184.88 273.14 176.89 275.80 C 171.48 277.82 165.96 274.48 162.04 270.95 C 158.90 267.65 155.24 263.90 155.29 259.02 C 155.22 253.77 156.57 248.22 160.18 244.25 C 164.10 238.26 169.30 233.31 173.87 227.83 C 178.33 223.32 181.81 217.99 185.87 213.15 C 186.47 215.83 186.06 218.56 185.41 221.18 C 181.90 222.89 180.97 226.86 178.47 229.53 C 172.26 235.79 166.64 242.81 162.51 250.62 C 158.25 258.00 163.47 267.55 170.99 270.18 C 174.85 270.98 178.69 269.14 181.44 266.52 C 186.18 262.06 190.78 257.04 192.81 250.71 C 193.53 248.12 195.61 246.28 196.70 243.89 C 199.38 235.25 202.75 226.82 205.31 218.14 C 205.65 213.16 208.43 208.81 208.83 203.84 C 209.15 199.13 211.48 194.94 213.91 191.01 C 217.65 185.88 223.94 183.72 229.71 181.74 Z"/>
<path fill="#033c63" d=" M 125.14 188.49 C 127.51 186.43 129.40 183.89 131.78 181.85 L 131.27 183.06 C 129.90 186.94 127.35 190.20 124.75 193.32 C 124.61 192.49 124.32 190.82 124.18 189.99 C 124.42 189.62 124.90 188.87 125.14 188.49 Z"/>
<path fill="#0066a3" d=" M 131.27 183.06 C 133.57 183.56 135.86 184.10 138.14 184.69 C 138.98 186.69 139.81 188.71 140.87 190.61 C 142.17 191.05 143.48 191.40 144.80 191.78 C 144.51 205.43 139.56 218.37 133.71 230.50 C 132.19 233.56 129.28 236.74 130.74 240.40 C 133.15 247.97 136.09 255.50 136.81 263.48 C 135.78 261.75 134.69 260.06 133.70 258.32 C 133.39 257.03 133.07 255.75 132.75 254.47 C 131.66 254.09 130.58 253.71 129.50 253.34 C 128.00 248.59 127.99 243.42 125.53 238.99 C 128.39 235.10 128.51 230.14 129.99 225.72 C 131.35 222.83 133.34 220.24 134.12 217.10 C 135.86 210.81 139.10 204.68 138.44 197.97 C 138.34 195.49 136.89 193.29 135.02 191.76 C 133.59 191.22 132.62 192.85 131.63 193.59 C 127.24 198.52 124.43 204.58 121.19 210.28 C 118.87 213.88 115.97 217.07 113.41 220.51 C 112.38 222.08 110.23 221.80 108.66 222.37 C 108.62 221.81 108.53 220.69 108.48 220.13 C 108.25 220.41 107.79 220.98 107.56 221.27 L 107.30 219.14 C 107.66 218.02 108.55 217.09 109.19 216.09 C 115.14 207.98 119.66 198.95 124.18 189.99 C 124.32 190.82 124.61 192.49 124.75 193.32 C 127.35 190.20 129.90 186.94 131.27 183.06 Z"/>
<path fill="#003a69" d=" M 233.45 184.55 C 237.72 182.90 242.36 183.10 246.84 183.31 C 247.88 184.52 249.00 185.66 250.22 186.68 C 250.43 192.67 251.12 198.90 249.60 204.77 C 245.67 213.01 241.84 221.72 234.95 227.99 C 231.05 231.84 226.52 234.96 222.01 238.05 C 217.20 241.32 213.21 246.18 212.11 252.02 C 210.52 257.92 213.17 264.58 218.48 267.66 C 223.11 271.61 229.68 270.54 235.06 268.98 C 240.29 266.92 245.68 264.77 249.89 260.92 C 253.85 257.40 258.28 253.61 259.22 248.09 C 260.24 243.97 261.79 240.03 263.27 236.07 C 263.94 234.23 264.43 232.33 264.82 230.42 C 265.36 230.19 266.44 229.71 266.97 229.48 C 265.66 236.28 264.70 243.32 261.29 249.48 C 254.80 262.75 240.78 271.83 226.07 272.62 C 221.22 272.81 215.93 271.32 212.73 267.47 C 207.44 260.87 208.40 250.90 213.07 244.23 C 217.30 237.34 225.07 234.14 231.05 229.08 C 238.73 223.03 243.44 214.14 246.86 205.16 C 248.91 199.45 250.42 192.85 247.96 187.03 C 246.16 183.85 241.98 184.15 238.91 184.80 C 231.09 186.71 223.95 190.53 216.66 193.81 C 214.34 208.40 210.81 222.87 205.44 236.65 C 205.32 234.96 204.86 233.22 205.40 231.56 C 208.17 221.85 211.44 212.24 213.48 202.34 C 214.36 198.69 213.78 193.84 217.45 191.60 C 222.41 188.49 227.98 186.54 233.45 184.55 Z"/>
<path fill="#033c63" d=" M 145.28 183.88 C 145.37 184.46 145.54 185.62 145.63 186.21 L 146.35 186.93 C 147.81 204.50 141.06 221.63 132.51 236.65 C 131.77 237.72 132.29 238.98 132.61 240.09 C 137.33 254.33 141.03 269.01 142.33 283.99 C 142.93 294.66 142.63 306.30 136.35 315.43 C 132.11 321.71 123.56 324.26 116.48 321.75 C 109.84 319.37 103.64 314.17 102.03 307.06 C 100.34 299.97 102.55 292.81 103.82 285.85 C 105.28 278.95 105.78 271.89 107.34 265.01 C 109.29 270.59 106.89 276.35 106.28 281.95 C 105.15 290.92 101.43 300.30 104.89 309.19 C 108.94 318.17 121.47 324.13 130.28 318.37 C 137.41 313.71 139.44 304.78 140.51 296.88 C 140.97 291.53 140.93 286.11 140.13 280.79 C 139.28 274.97 138.32 269.17 136.81 263.48 C 136.09 255.50 133.15 247.97 130.74 240.40 C 129.28 236.74 132.19 233.56 133.71 230.50 C 139.56 218.37 144.51 205.43 144.80 191.78 C 143.48 191.40 142.17 191.05 140.87 190.61 C 141.83 190.66 143.74 190.77 144.70 190.82 C 144.70 189.31 144.71 187.80 144.73 186.30 C 144.86 185.69 145.14 184.48 145.28 183.88 Z"/>
<path fill="#055280" d=" M 158.49 193.15 C 159.81 190.83 161.03 188.43 162.79 186.39 C 163.37 186.81 164.53 187.66 165.11 188.08 C 162.45 193.09 161.16 199.51 164.40 204.56 C 169.17 209.67 176.68 209.27 182.87 207.58 C 184.37 207.59 185.88 207.59 187.39 207.55 C 180.58 210.40 173.06 213.28 165.63 211.15 C 160.76 209.39 158.57 204.19 158.10 199.38 C 158.22 198.14 158.33 196.89 158.40 195.65 C 158.42 195.02 158.46 193.78 158.49 193.15 Z"/>
<path fill="#0164a0" d=" M 250.22 186.68 C 250.85 186.92 252.10 187.40 252.73 187.64 C 253.28 192.72 253.72 197.91 252.79 202.97 C 249.90 210.93 246.79 218.91 242.18 226.05 C 239.53 228.51 237.01 231.09 234.91 234.05 C 232.58 236.07 229.43 237.02 227.33 239.38 C 223.88 242.96 219.18 245.84 217.73 250.88 C 216.42 254.47 216.39 259.01 218.99 262.03 C 223.82 266.01 230.99 266.17 236.52 263.57 C 240.09 261.83 244.55 262.51 247.68 259.82 C 252.16 255.94 256.27 251.48 258.72 246.00 C 258.84 246.52 259.10 247.57 259.22 248.09 C 258.28 253.61 253.85 257.40 249.89 260.92 C 245.68 264.77 240.29 266.92 235.06 268.98 C 229.68 270.54 223.11 271.61 218.48 267.66 C 213.17 264.58 210.52 257.92 212.11 252.02 C 213.21 246.18 217.20 241.32 222.01 238.05 C 226.52 234.96 231.05 231.84 234.95 227.99 C 241.84 221.72 245.67 213.01 249.60 204.77 C 251.12 198.90 250.43 192.67 250.22 186.68 Z"/>
<path fill="#0069a8" d=" M 165.11 188.08 L 166.21 188.48 C 167.22 188.83 168.24 189.16 169.26 189.50 C 167.82 192.42 166.75 195.63 167.13 198.94 C 167.06 201.65 169.74 203.12 171.72 204.39 C 175.11 206.58 179.73 204.81 182.87 207.58 C 176.68 209.27 169.17 209.67 164.40 204.56 C 161.16 199.51 162.45 193.09 165.11 188.08 Z"/>
<path fill="#080000" d=" M 220.50 196.65 C 228.19 193.31 235.81 188.78 244.37 188.44 C 244.83 191.88 245.16 195.42 244.42 198.85 C 241.09 210.88 234.68 222.74 223.73 229.40 L 221.83 228.09 C 226.58 224.53 231.44 220.82 234.53 215.63 C 238.78 208.76 242.44 201.07 242.79 192.87 C 242.83 192.16 242.92 190.74 242.96 190.02 C 236.94 191.76 230.84 193.40 225.17 196.12 C 223.99 196.81 222.34 197.40 222.14 198.96 C 220.68 205.56 219.24 212.17 217.33 218.65 C 217.18 219.87 216.08 220.26 215.08 220.61 C 217.19 212.69 219.05 204.71 220.50 196.65 Z"/>
<path fill="#211615" d=" M 225.17 196.12 C 230.84 193.40 236.94 191.76 242.96 190.02 C 242.92 190.74 242.83 192.16 242.79 192.87 C 237.93 193.84 233.47 196.10 229.00 198.15 C 227.08 198.70 227.05 200.86 226.62 202.45 C 224.88 210.95 223.08 219.47 220.26 227.68 C 220.65 227.78 221.44 227.99 221.83 228.09 L 223.73 229.40 C 222.14 230.55 220.48 231.60 218.84 232.66 C 216.56 231.89 214.89 233.85 213.23 235.02 C 213.13 233.47 212.88 231.93 212.14 230.54 C 213.06 227.21 214.07 223.91 215.08 220.61 C 216.08 220.26 217.18 219.87 217.33 218.65 C 219.24 212.17 220.68 205.56 222.14 198.96 C 222.34 197.40 223.99 196.81 225.17 196.12 Z"/>
<path fill="#072e59" d=" M 327.73 189.63 C 332.99 189.30 338.65 194.03 337.55 199.60 C 336.69 202.49 333.88 204.46 331.03 205.14 C 328.97 205.13 326.92 205.02 324.87 204.89 C 328.70 203.27 334.74 203.09 335.63 198.01 C 335.12 193.78 330.37 192.35 327.73 189.63 Z"/>
<path fill="#6993bf" d=" M 448.40 189.54 C 450.60 191.21 452.97 192.64 455.34 194.07 C 455.53 196.55 455.97 199.19 454.64 201.47 C 454.15 198.50 454.03 194.72 450.53 193.81 C 450.95 197.30 450.04 201.66 453.28 204.04 C 451.74 206.99 450.06 209.86 448.05 212.51 C 447.30 212.56 445.80 212.65 445.05 212.70 C 445.93 209.33 447.54 206.25 448.94 203.09 C 450.68 199.19 448.55 195.06 448.54 191.05 L 448.40 189.54 Z"/>
<path fill="#0075c2" d=" M 131.63 193.59 C 132.62 192.85 133.59 191.22 135.02 191.76 C 136.89 193.29 138.34 195.49 138.44 197.97 C 139.10 204.68 135.86 210.81 134.12 217.10 C 133.34 220.24 131.35 222.83 129.99 225.72 C 128.51 230.14 128.39 235.10 125.53 238.99 C 127.99 243.42 128.00 248.59 129.50 253.34 C 130.58 253.71 131.66 254.09 132.75 254.47 C 133.07 255.75 133.39 257.03 133.70 258.32 C 132.38 267.88 134.86 277.40 134.22 286.97 C 134.14 292.71 132.63 298.35 132.92 304.09 C 132.93 305.57 134.03 306.68 134.72 307.88 C 132.00 310.71 128.14 312.02 124.68 313.70 C 118.10 316.42 111.83 310.55 108.91 305.16 C 107.65 299.91 108.03 294.30 108.89 289.00 C 111.69 280.64 112.27 271.69 111.45 262.95 C 109.76 261.50 108.83 259.50 108.47 257.33 C 108.40 256.81 108.26 255.78 108.19 255.26 C 100.73 256.89 94.99 262.33 89.40 267.15 C 86.34 272.08 81.53 275.43 77.98 279.96 C 73.47 284.42 66.47 287.56 60.26 284.81 C 53.25 281.93 47.45 290.65 40.41 287.63 C 35.63 286.07 33.93 279.54 28.58 279.44 C 24.47 274.84 19.59 270.45 17.76 264.36 C 16.48 260.23 19.56 256.55 19.47 252.47 C 19.69 252.30 20.12 251.97 20.34 251.80 C 28.29 249.01 34.33 242.80 41.35 238.38 C 43.05 237.22 45.18 237.70 47.10 237.65 C 47.70 239.67 48.22 241.71 48.85 243.72 C 50.02 247.81 52.16 252.92 56.97 253.52 C 64.04 254.01 71.02 252.09 77.77 250.21 C 82.44 248.86 86.93 246.78 90.80 243.82 C 96.06 239.57 101.46 235.36 105.54 229.90 C 107.27 227.75 108.79 225.25 108.66 222.37 C 110.23 221.80 112.38 222.08 113.41 220.51 C 115.97 217.07 118.87 213.88 121.19 210.28 C 124.43 204.58 127.24 198.52 131.63 193.59 Z"/>

<path fill="#96b2d7" d=" M 450.53 193.81 C 454.03 194.72 454.15 198.50 454.64 201.47 C 454.30 202.11 453.62 203.40 453.28 204.04 C 450.04 201.66 450.95 197.30 450.53 193.81 Z"/>
<path fill="#0b4c76" d=" M 455.34 194.07 C 456.26 194.69 457.17 195.36 458.01 196.13 C 457.66 198.35 456.94 200.50 456.56 202.72 L 456.51 202.95 C 450.37 212.29 444.51 221.87 437.82 230.80 C 434.16 231.10 432.47 227.02 429.94 225.08 C 426.58 220.64 421.73 225.55 417.99 226.88 C 415.43 228.04 412.12 231.18 409.59 228.31 C 404.06 223.08 397.75 218.79 392.31 213.48 C 388.95 210.54 384.80 208.39 382.17 204.70 C 384.42 205.66 386.66 206.77 388.31 208.65 C 392.06 212.71 397.08 215.24 401.05 219.05 C 404.47 222.29 408.28 225.08 412.26 227.59 C 416.67 226.14 420.62 223.51 425.11 222.33 C 429.64 221.04 432.36 227.00 436.82 225.61 C 441.42 224.20 443.70 219.40 445.93 215.53 C 446.63 214.52 447.33 213.51 448.05 212.51 C 450.06 209.86 451.74 206.99 453.28 204.04 C 453.62 203.40 454.30 202.11 454.64 201.47 C 455.97 199.19 455.53 196.55 455.34 194.07 Z"/>
<path fill="#080502" d=" M 282.80 198.15 C 283.12 197.49 283.75 196.16 284.07 195.49 C 285.69 197.88 288.11 199.51 290.53 201.02 C 290.49 201.27 290.40 201.78 290.36 202.04 C 288.47 204.03 286.64 206.10 285.02 208.32 C 284.51 207.96 283.49 207.24 282.98 206.88 C 284.41 205.21 285.84 203.53 287.29 201.87 C 285.80 200.62 284.31 199.37 282.80 198.15 Z"/>
<path fill="#ffffff" d=" M 282.01 206.20 C 282.20 203.51 282.11 200.77 282.80 198.15 C 284.31 199.37 285.80 200.62 287.29 201.87 C 285.84 203.53 284.41 205.21 282.98 206.88 C 282.74 206.71 282.25 206.37 282.01 206.20 Z"/>
<path fill="#01619b" d=" M 370.62 197.12 C 372.12 200.53 373.54 204.20 373.46 207.97 C 372.97 211.09 372.92 214.27 372.34 217.38 C 370.12 226.72 360.60 233.61 351.01 232.57 C 347.97 232.20 344.32 230.71 343.77 227.30 C 341.07 220.03 344.99 212.69 348.79 206.64 C 349.34 212.87 345.41 219.01 347.91 225.11 C 350.33 227.58 354.52 229.88 357.92 227.96 C 362.98 225.75 368.07 221.90 369.20 216.18 C 370.27 209.89 370.56 203.49 370.62 197.12 Z"/>
<path fill="#006098" d=" M 373.40 197.79 C 377.59 198.66 381.58 200.37 385.06 202.87 C 393.34 208.82 400.25 216.62 409.15 221.72 C 413.42 224.23 418.14 222.03 422.35 220.63 C 426.31 219.09 430.10 221.81 434.05 221.91 C 438.72 221.64 441.76 217.26 445.93 215.53 C 443.70 219.40 441.42 224.20 436.82 225.61 C 432.36 227.00 429.64 221.04 425.11 222.33 C 420.62 223.51 416.67 226.14 412.26 227.59 C 408.28 225.08 404.47 222.29 401.05 219.05 C 397.08 215.24 392.06 212.71 388.31 208.65 C 386.66 206.77 384.42 205.66 382.17 204.70 C 379.07 202.66 376.21 200.22 373.40 197.79 Z"/>
<path fill="#0b0505" d=" M 341.12 201.60 C 341.38 201.49 341.91 201.28 342.18 201.17 C 342.31 202.67 342.45 204.17 342.59 205.68 C 336.48 212.99 334.74 223.52 338.92 232.19 L 338.11 231.96 C 334.30 230.92 335.83 225.97 334.13 223.39 C 334.10 221.78 334.13 220.18 334.24 218.59 C 334.64 217.52 334.99 216.42 335.28 215.32 C 335.86 213.41 336.56 211.55 337.26 209.70 C 333.91 210.36 330.59 211.18 327.34 212.21 C 326.01 216.40 324.43 220.52 322.44 224.45 C 321.96 226.01 320.43 226.58 319.05 227.10 C 322.10 221.88 323.92 216.11 325.88 210.43 C 331.70 209.34 338.83 207.99 341.12 201.60 Z"/>
<path fill="#201614" d=" M 378.45 207.70 C 387.84 215.59 397.19 223.53 406.58 231.44 C 408.71 233.37 411.79 234.51 414.61 233.43 C 418.61 231.74 422.37 229.54 426.21 227.53 C 429.60 230.90 432.82 235.91 438.27 235.42 C 438.30 236.28 438.32 237.14 438.35 238.01 C 434.18 238.40 430.73 236.02 427.83 233.35 C 424.78 234.32 422.22 236.47 419.08 237.21 C 416.36 238.00 413.68 236.64 411.00 236.34 C 408.07 236.08 405.74 234.17 403.59 232.35 C 397.71 227.30 391.68 222.42 385.90 217.26 C 384.95 226.92 378.49 235.67 369.56 239.46 C 361.52 243.34 351.94 242.77 344.07 238.76 L 343.90 238.28 C 341.97 237.96 340.93 236.03 339.00 235.74 C 339.00 235.32 339.00 234.49 339.00 234.07 L 337.86 233.97 C 337.92 233.47 338.05 232.46 338.11 231.96 L 338.92 232.19 C 341.25 235.05 344.32 237.42 348.03 238.10 C 358.85 240.31 370.68 234.63 375.89 224.91 C 378.93 219.72 379.03 213.52 378.45 207.70 Z"/>
<path fill="#221716" d=" M 327.34 212.21 C 330.59 211.18 333.91 210.36 337.26 209.70 C 336.56 211.55 335.86 213.41 335.28 215.32 C 335.23 214.67 335.14 213.38 335.09 212.74 C 333.38 212.86 332.28 214.18 331.12 215.27 C 331.20 216.49 330.88 217.55 330.16 218.45 C 329.95 219.78 330.19 221.29 329.28 222.43 C 327.58 226.73 325.40 230.90 322.30 234.38 C 320.97 235.73 319.26 236.82 318.66 238.72 C 317.05 239.08 316.05 240.13 315.75 241.75 C 314.47 242.01 313.59 242.94 312.69 243.81 C 311.57 243.90 310.53 244.20 309.55 244.71 C 308.48 244.91 307.46 245.26 306.51 245.76 C 303.04 246.18 299.53 246.67 296.06 246.01 L 297.01 245.48 C 299.53 243.91 302.44 243.09 305.41 243.47 C 305.42 243.16 305.45 242.54 305.46 242.23 C 309.86 239.07 314.78 236.22 317.73 231.51 C 318.43 230.54 318.23 229.26 318.45 228.16 C 318.64 227.80 318.84 227.45 319.05 227.10 C 320.43 226.58 321.96 226.01 322.44 224.45 C 324.43 220.52 326.01 216.40 327.34 212.21 Z"/>
<path fill="#0a0006" d=" M 155.79 211.94 C 156.36 211.59 157.49 210.90 158.05 210.55 C 162.53 216.34 170.46 216.28 177.05 215.44 C 169.69 223.95 161.79 232.04 155.20 241.18 C 151.93 246.38 147.92 252.40 149.67 258.84 C 150.89 262.95 150.77 267.77 153.97 271.01 C 158.26 275.95 163.41 280.72 169.94 282.30 C 174.99 283.47 180.17 281.86 184.43 279.14 C 184.35 279.56 184.20 280.39 184.13 280.81 C 182.66 282.04 181.10 283.14 179.60 284.33 C 182.21 284.05 184.61 283.01 186.81 281.62 C 187.66 282.07 188.51 282.53 189.36 282.99 C 187.58 284.94 184.53 284.92 182.12 285.68 C 176.17 285.98 169.55 286.02 164.29 282.86 C 162.67 281.71 160.80 281.04 158.87 280.63 C 158.33 279.99 157.80 279.34 157.27 278.70 C 156.01 277.12 154.57 275.67 153.23 274.17 L 153.19 273.92 L 153.83 274.25 C 148.83 268.76 148.06 260.77 147.25 253.70 L 147.64 252.54 C 147.98 251.52 148.33 250.50 148.70 249.49 C 148.99 245.33 152.04 242.32 154.04 238.91 C 156.80 234.20 160.63 230.26 164.17 226.15 C 166.50 223.50 168.77 220.76 171.56 218.58 C 165.65 218.68 159.64 216.56 155.79 211.94 Z"/>
<path fill="#072e59" d=" M 173.14 226.10 C 177.57 221.34 181.65 216.27 185.56 211.08 C 185.64 211.59 185.79 212.63 185.87 213.15 C 181.81 217.99 178.33 223.32 173.87 227.83 C 169.30 233.31 164.10 238.26 160.18 244.25 C 156.57 248.22 155.22 253.77 155.29 259.02 C 155.24 263.90 158.90 267.65 162.04 270.95 C 165.96 274.48 171.48 277.82 176.89 275.80 C 184.88 273.14 189.68 265.59 193.76 258.72 C 197.53 253.05 199.68 246.55 202.31 240.33 C 202.89 238.76 204.28 237.77 205.43 236.66 C 201.67 247.94 196.57 258.92 189.44 268.49 C 185.33 273.43 179.98 278.78 173.03 278.53 C 166.26 278.03 161.11 272.85 156.90 268.01 C 152.58 263.09 152.10 255.64 154.98 249.88 C 159.31 240.77 166.72 233.72 173.14 226.10 Z"/>
<path fill="#080000" d=" M 279.08 215.89 C 279.01 213.39 280.85 211.94 282.92 211.00 C 280.86 214.25 280.86 218.22 280.20 221.89 C 279.78 224.88 278.91 227.83 278.80 230.86 C 281.48 238.11 289.08 243.67 296.98 242.74 C 306.05 241.88 313.34 235.27 318.45 228.16 C 318.23 229.26 318.43 230.54 317.73 231.51 C 314.78 236.22 309.86 239.07 305.46 242.23 C 305.45 242.54 305.42 243.16 305.41 243.47 C 302.44 243.09 299.53 243.91 297.01 245.48 L 296.23 245.88 C 288.86 245.19 281.28 241.52 277.94 234.64 C 276.08 228.44 278.53 222.11 279.08 215.89 Z"/>
<path fill="#00639f" d=" M 284.46 225.97 C 283.85 219.92 287.51 214.62 291.36 210.35 C 291.80 215.94 288.14 221.11 289.15 226.70 C 289.89 230.45 293.62 231.98 296.84 233.09 C 298.40 233.69 299.95 234.32 301.50 234.97 C 295.00 239.32 283.98 234.16 284.46 225.97 Z"/>

<path fill="#5b8cc9" d=" M 304.45 225.44 C 309.48 221.64 312.14 215.66 316.85 211.53 C 317.27 212.15 318.13 213.40 318.55 214.02 C 317.49 217.37 316.36 220.78 313.98 223.45 C 314.51 220.93 315.04 218.41 315.58 215.89 C 312.92 217.80 311.01 220.48 308.96 222.97 C 306.38 226.10 302.43 228.03 300.67 231.83 C 304.91 231.90 308.08 228.93 311.56 227.00 C 309.28 230.80 305.44 233.19 301.50 234.97 C 299.95 234.32 298.40 233.69 296.84 233.09 C 298.76 229.97 301.56 227.61 304.45 225.44 Z"/>
<path fill="#1b1212" d=" M 267.37 245.96 C 270.60 235.28 272.00 224.14 273.97 213.18 C 276.38 217.79 274.56 222.93 273.71 227.69 C 272.40 234.52 271.10 241.38 268.71 247.93 C 268.37 247.44 267.70 246.45 267.37 245.96 Z"/>
<path fill="#a4b9d8" d=" M 308.96 222.97 C 311.01 220.48 312.92 217.80 315.58 215.89 C 315.04 218.41 314.51 220.93 313.98 223.45 C 313.18 224.64 312.40 225.84 311.56 227.00 C 308.08 228.93 304.91 231.90 300.67 231.83 C 302.43 228.03 306.38 226.10 308.96 222.97 Z"/>
<path fill="#12476d" d=" M 83.46 241.57 C 93.22 236.31 100.33 227.52 107.30 219.14 L 107.56 221.27 C 106.02 223.27 104.44 225.24 102.77 227.13 C 96.39 234.07 89.53 240.95 80.68 244.65 C 72.98 247.90 64.05 249.91 55.84 247.57 C 60.39 247.10 65.05 247.70 69.50 246.44 C 74.30 245.33 79.15 244.06 83.46 241.57 Z"/>
<path fill="#6889c1" d=" M 108.48 220.13 C 108.53 220.69 108.62 221.81 108.66 222.37 C 108.79 225.25 107.27 227.75 105.54 229.90 C 104.61 228.98 103.69 228.05 102.77 227.13 C 104.44 225.24 106.02 223.27 107.56 221.27 C 107.79 220.98 108.25 220.41 108.48 220.13 Z"/>
<path fill="#072e59" d=" M 36.42 235.39 C 39.66 232.31 43.05 229.31 47.06 227.27 C 48.15 228.44 49.41 229.58 49.83 231.20 C 51.27 235.41 52.89 239.57 54.69 243.65 C 54.33 243.55 53.61 243.36 53.24 243.26 C 51.14 239.07 49.88 234.47 47.50 230.39 C 46.58 230.44 45.66 230.50 44.73 230.56 C 43.40 231.62 42.05 232.67 40.69 233.70 C 33.52 239.27 27.03 245.67 20.34 251.80 C 20.12 251.97 19.69 252.30 19.47 252.47 C 16.49 254.79 13.29 257.18 11.53 260.62 C 10.06 264.83 14.32 267.59 16.64 270.38 C 20.48 275.02 24.70 279.33 28.62 283.90 C 28.57 284.36 28.47 285.26 28.42 285.71 C 22.15 278.93 15.88 272.14 9.77 265.22 C 8.14 263.79 8.32 261.66 8.50 259.73 C 17.69 251.49 27.02 243.40 36.42 235.39 Z"/>
<path fill="#8ba5c9" d=" M 80.68 244.65 C 89.53 240.95 96.39 234.07 102.77 227.13 C 103.69 228.05 104.61 228.98 105.54 229.90 C 101.46 235.36 96.06 239.57 90.80 243.82 C 86.93 246.78 82.44 248.86 77.77 250.21 C 71.17 247.94 64.16 252.38 57.55 249.50 C 53.92 248.64 52.79 243.61 48.85 243.72 C 48.22 241.71 47.70 239.67 47.10 237.65 C 45.95 234.74 42.80 235.85 40.54 236.51 C 40.59 235.57 40.64 234.64 40.69 233.70 C 42.05 232.67 43.40 231.62 44.73 230.56 C 45.66 230.50 46.58 230.44 47.50 230.39 C 49.88 234.47 51.14 239.07 53.24 243.26 C 53.61 243.36 54.33 243.55 54.69 243.65 C 57.61 248.92 64.71 245.49 69.50 246.44 C 65.05 247.70 60.39 247.10 55.84 247.57 C 64.05 249.91 72.98 247.90 80.68 244.65 Z"/>
<path fill="#89a8d3" d=" M 261.71 228.24 C 262.15 228.39 263.04 228.68 263.48 228.83 C 263.43 231.24 263.42 233.65 263.27 236.07 C 261.79 240.03 260.24 243.97 259.22 248.09 C 259.10 247.57 258.84 246.52 258.72 246.00 C 256.27 251.48 252.16 255.94 247.68 259.82 C 246.38 260.17 245.12 260.03 243.90 259.41 C 246.45 255.26 249.62 251.53 252.28 247.45 C 256.29 241.51 258.90 234.79 261.71 228.24 Z"/>
<path fill="#080000" d=" M 208.13 241.63 C 209.50 237.95 210.95 234.29 212.14 230.54 C 212.88 231.93 213.13 233.47 213.23 235.02 C 214.89 233.85 216.56 231.89 218.84 232.66 C 214.73 235.58 211.08 239.21 208.58 243.62 C 208.47 243.12 208.24 242.13 208.13 241.63 Z"/>
<path fill="#080000" d=" M 140.34 231.16 C 140.99 234.00 138.86 236.27 138.25 238.89 C 145.44 259.21 149.96 281.02 147.41 302.64 C 146.73 308.05 144.62 313.14 141.85 317.81 C 141.42 317.70 140.56 317.49 140.13 317.38 C 146.13 308.52 147.05 297.40 146.70 287.00 C 146.07 270.24 141.63 253.91 136.39 238.06 C 137.75 235.78 139.07 233.49 140.34 231.16 Z"/>
<path fill="#5e88b6" d=" M 20.34 251.80 C 27.03 245.67 33.52 239.27 40.69 233.70 C 40.64 234.64 40.59 235.57 40.54 236.51 C 42.80 235.85 45.95 234.74 47.10 237.65 C 45.18 237.70 43.05 237.22 41.35 238.38 C 34.33 242.80 28.29 249.01 20.34 251.80 Z"/>
<path fill="#211715" d=" M 204.41 250.56 C 205.61 247.56 206.84 244.59 208.13 241.63 C 208.24 242.13 208.47 243.12 208.58 243.62 C 204.71 250.64 203.82 259.43 207.25 266.81 C 206.70 266.96 205.59 267.27 205.04 267.42 C 204.73 267.35 204.11 267.21 203.80 267.13 C 200.06 273.30 195.12 278.62 189.42 283.03 L 189.36 282.99 C 188.51 282.53 187.66 282.07 186.81 281.62 C 184.61 283.01 182.21 284.05 179.60 284.33 C 181.10 283.14 182.66 282.04 184.13 280.81 C 184.20 280.39 184.35 279.56 184.43 279.14 C 184.61 279.02 184.98 278.79 185.16 278.68 C 186.76 278.27 188.49 277.94 189.62 276.62 C 195.21 271.16 199.32 264.42 203.33 257.77 C 204.78 255.62 204.74 253.01 204.41 250.56 Z"/>
<path fill="#a2bbdc" d=" M 48.85 243.72 C 52.79 243.61 53.92 248.64 57.55 249.50 C 64.16 252.38 71.17 247.94 77.77 250.21 C 71.02 252.09 64.04 254.01 56.97 253.52 C 52.16 252.92 50.02 247.81 48.85 243.72 Z"/>
<path fill="#080000" d=" M 204.41 250.56 C 204.74 253.01 204.78 255.62 203.33 257.77 C 199.32 264.42 195.21 271.16 189.62 276.62 C 188.49 277.94 186.76 278.27 185.16 278.68 C 194.00 271.26 199.88 261.01 204.41 250.56 Z"/>
<path fill="#01598d" d=" M 11.53 260.62 C 13.29 257.18 16.49 254.79 19.47 252.47 C 19.56 256.55 16.48 260.23 17.76 264.36 C 19.59 270.45 24.47 274.84 28.58 279.44 C 31.45 284.71 35.49 290.69 42.05 291.22 C 45.16 290.64 48.11 289.36 51.26 288.91 C 49.02 291.77 47.06 294.91 44.39 297.40 C 43.31 298.02 42.20 297.27 41.28 296.72 C 37.09 294.00 34.40 289.67 30.94 286.17 C 30.34 286.10 29.13 285.95 28.53 285.87 L 28.41 285.86 L 28.42 285.71 C 28.47 285.26 28.57 284.36 28.62 283.90 C 24.70 279.33 20.48 275.02 16.64 270.38 C 14.32 267.59 10.06 264.83 11.53 260.62 Z"/>
<path fill="#0064a2" d=" M 89.40 267.15 C 94.99 262.33 100.73 256.89 108.19 255.26 C 107.29 256.63 106.40 258.12 104.92 258.94 C 101.70 260.89 98.96 263.48 96.04 265.82 C 94.87 269.38 91.67 271.60 89.44 274.45 C 86.67 277.98 83.62 281.25 80.58 284.54 C 78.33 286.94 76.38 289.76 73.47 291.41 C 67.33 291.87 61.73 288.48 55.79 287.50 C 54.14 287.23 52.71 288.30 51.26 288.91 C 48.11 289.36 45.16 290.64 42.05 291.22 C 35.49 290.69 31.45 284.71 28.58 279.44 C 33.93 279.54 35.63 286.07 40.41 287.63 C 47.45 290.65 53.25 281.93 60.26 284.81 C 66.47 287.56 73.47 284.42 77.98 279.96 C 81.53 275.43 86.34 272.08 89.40 267.15 Z"/>
<path fill="#0064a0" d=" M 107.34 265.01 C 107.09 262.40 107.86 259.84 108.47 257.33 C 108.83 259.50 109.76 261.50 111.45 262.95 C 112.27 271.69 111.69 280.64 108.89 289.00 C 108.03 294.30 107.65 299.91 108.91 305.16 C 111.83 310.55 118.10 316.42 124.68 313.70 C 128.14 312.02 132.00 310.71 134.72 307.88 C 140.25 300.06 140.58 290.01 140.13 280.79 C 140.93 286.11 140.97 291.53 140.51 296.88 C 139.44 304.78 137.41 313.71 130.28 318.37 C 121.47 324.13 108.94 318.17 104.89 309.19 C 101.43 300.30 105.15 290.92 106.28 281.95 C 106.89 276.35 109.29 270.59 107.34 265.01 Z"/>
<path fill="#072e59" d=" M 96.04 265.82 C 98.96 263.48 101.70 260.89 104.92 258.94 C 96.47 270.01 86.60 279.92 77.70 290.64 C 76.02 292.50 73.76 295.33 70.93 293.98 C 65.19 292.14 59.47 290.23 53.78 288.22 C 51.04 292.00 48.44 295.90 45.53 299.54 C 43.54 301.99 40.72 299.41 39.19 297.79 C 35.79 293.67 31.90 290.00 28.53 285.87 C 29.13 285.95 30.34 286.10 30.94 286.17 C 34.40 289.67 37.09 294.00 41.28 296.72 C 42.20 297.27 43.31 298.02 44.39 297.40 C 47.06 294.91 49.02 291.77 51.26 288.91 C 52.71 288.30 54.14 287.23 55.79 287.50 C 61.73 288.48 67.33 291.87 73.47 291.41 C 76.38 289.76 78.33 286.94 80.58 284.54 C 83.62 281.25 86.67 277.98 89.44 274.45 C 91.67 271.60 94.87 269.38 96.04 265.82 Z"/>
<path fill="#4e8ec0" d=" M 134.22 286.97 C 134.86 277.40 132.38 267.88 133.70 258.32 C 134.69 260.06 135.78 261.75 136.81 263.48 C 138.32 269.17 139.28 274.97 140.13 280.79 C 140.58 290.01 140.25 300.06 134.72 307.88 C 134.03 306.68 132.93 305.57 132.92 304.09 C 132.63 298.35 134.14 292.71 134.22 286.97 Z"/>
<path fill="#100708" d=" M 205.04 267.42 C 205.59 267.27 206.70 266.96 207.25 266.81 C 210.16 271.78 215.21 275.60 220.99 276.41 C 230.37 277.78 239.78 274.57 247.86 270.00 C 247.67 272.74 244.83 273.77 242.70 274.79 C 235.80 277.51 228.41 279.05 220.98 278.85 C 214.28 278.06 207.61 273.81 205.04 267.42 Z"/>
<path fill="#8fb1d7" d=" M 135.44 271.92 C 137.76 275.05 137.46 279.27 138.28 282.93 C 138.62 289.33 138.71 296.34 135.54 302.11 C 133.94 299.31 134.73 296.01 134.89 292.97 C 135.73 285.98 135.14 278.94 135.44 271.92 Z"/>
<path fill="#a29671" d=" M 157.27 278.70 C 157.80 279.34 158.33 279.99 158.87 280.63 C 160.80 281.04 162.67 281.71 164.29 282.86 C 162.32 282.38 160.30 282.09 158.33 281.61 C 157.92 280.66 157.57 279.69 157.27 278.70 Z"/>
</svg>