<?xml version="1.0" encoding="UTF-8" ?>
<!DOCTYPE svg PUBLIC "-//W3C//DTD SVG 1.1//EN" "http://www.w3.org/Graphics/SVG/1.1/DTD/svg11.dtd">
<svg width="348pt" height="348pt" viewBox="0 0 348 348" version="1.1" xmlns="http://www.w3.org/2000/svg">
<path fill="#231a17" d=" M 110.03 10.04 C 114.27 7.74 118.86 10.52 122.76 12.22 C 136.71 18.91 150.83 25.27 164.78 31.96 C 170.23 34.72 172.16 42.41 168.36 47.28 C 159.46 59.73 150.32 72.00 141.31 84.37 C 139.75 86.48 138.41 88.90 136.11 90.29 C 132.33 92.90 126.57 93.44 123.04 90.12 C 118.05 85.41 113.63 80.14 108.85 75.22 C 107.50 75.21 106.15 75.20 104.80 75.21 C 102.46 80.75 101.43 86.91 98.10 91.99 C 94.41 96.86 88.13 98.12 83.00 100.82 C 73.87 109.85 66.78 120.82 61.44 132.47 C 54.42 144.03 52.85 157.86 52.57 171.12 C 50.86 183.80 55.20 196.15 57.20 208.54 C 58.95 212.10 59.72 216.06 61.71 219.52 C 61.95 220.03 62.45 221.07 62.69 221.58 C 62.98 222.63 63.37 223.65 63.85 224.64 C 63.89 225.86 63.90 227.08 63.89 228.31 C 63.08 229.36 62.30 230.45 61.60 231.59 C 53.34 237.71 43.12 240.16 34.29 245.29 C 33.10 246.08 31.74 246.58 30.31 246.72 L 30.74 247.26 C 29.18 247.45 27.62 247.72 26.11 248.18 C 24.76 248.30 23.41 248.39 22.05 248.46 C 20.16 246.50 17.37 245.37 16.17 242.81 C 14.05 238.61 12.36 234.20 11.35 229.61 C 8.74 225.18 7.76 220.04 6.40 215.14 C 5.15 209.09 3.62 203.09 3.05 196.94 C 2.06 193.39 2.84 189.63 1.79 186.11 C 0.66 167.88 2.10 149.44 6.81 131.76 C 8.72 125.38 10.18 118.70 13.99 113.11 C 21.02 96.57 31.40 81.68 43.00 68.03 C 49.08 60.95 56.89 55.74 64.71 50.81 C 67.30 44.80 68.83 38.37 71.48 32.38 C 73.06 28.66 77.02 26.17 81.05 26.30 C 87.63 26.24 94.21 26.46 100.79 26.35 C 102.47 20.38 103.84 13.01 110.03 10.04 Z" />
<path fill="#231a17" d=" M 183.81 16.86 C 190.12 12.95 197.78 14.51 204.48 16.43 C 211.29 17.01 217.94 18.72 224.40 20.92 C 253.35 30.14 280.16 46.82 300.12 69.86 C 303.10 73.04 304.76 77.14 307.42 80.56 C 314.10 89.71 319.25 99.86 323.82 110.20 C 327.64 119.19 331.45 128.36 332.64 138.15 C 333.52 142.88 333.09 147.72 333.68 152.46 C 336.00 156.03 339.17 158.94 341.85 162.23 C 344.34 165.31 347.60 168.26 348.00 172.44 L 348.00 175.01 C 347.65 177.03 346.89 178.95 345.81 180.69 C 342.78 185.81 339.68 190.89 336.75 196.06 C 341.05 200.40 346.42 205.14 346.31 211.79 C 346.50 216.25 342.35 218.81 339.23 221.16 C 326.40 229.96 313.70 238.95 300.90 247.78 C 297.45 250.41 292.53 250.58 288.75 248.58 C 285.72 246.63 284.37 243.14 282.95 239.99 C 276.87 225.97 270.64 212.02 264.55 198.00 C 262.40 192.87 264.42 185.86 269.79 183.68 C 276.53 181.16 283.85 180.69 290.61 178.24 C 291.40 177.29 292.00 176.19 292.66 175.15 C 289.05 170.52 284.59 166.51 281.65 161.39 C 278.76 155.57 281.33 149.09 281.23 143.01 C 277.97 130.81 272.17 119.37 264.91 109.06 C 260.86 101.75 255.09 95.52 248.51 90.41 C 243.32 86.18 237.33 83.11 231.99 79.09 C 222.32 73.37 211.35 70.55 200.78 67.04 C 194.10 65.07 186.70 66.40 180.43 63.02 C 178.86 59.29 178.16 55.23 178.57 51.18 C 179.36 42.84 180.91 34.53 180.67 26.12 C 181.60 22.99 182.64 19.90 183.81 16.86 Z" />
<path fill="#f4c61e" d=" M 110.43 16.37 C 112.30 13.80 115.73 14.85 118.13 15.98 C 132.00 22.33 145.74 28.99 159.62 35.33 C 161.74 36.39 164.58 37.32 164.99 40.03 C 165.71 42.74 163.58 45.00 162.10 47.01 C 152.80 59.45 143.86 72.16 134.46 84.53 C 132.67 87.32 128.25 88.26 125.89 85.69 C 120.94 80.42 116.21 74.88 110.88 70.00 C 107.63 69.60 104.35 69.86 101.08 69.78 C 98.74 75.63 97.18 81.78 94.66 87.55 C 91.33 92.82 84.52 93.59 79.58 96.61 C 69.30 106.91 61.11 119.36 55.64 132.84 C 54.30 137.67 51.37 141.88 50.33 146.81 C 46.17 162.92 46.97 179.81 49.35 196.13 C 50.69 204.46 53.01 212.64 56.24 220.45 C 57.10 222.67 58.20 225.12 57.33 227.52 C 56.61 228.90 55.24 229.78 53.87 230.43 C 46.63 233.67 39.41 236.96 32.16 240.16 C 29.23 241.36 26.09 243.68 22.81 242.31 C 19.93 240.57 19.38 236.92 18.09 234.07 C 9.23 212.16 6.43 188.23 7.07 164.76 C 7.89 149.48 10.77 134.24 16.12 119.89 C 19.92 113.83 22.30 107.04 25.94 100.89 C 32.09 90.64 38.96 80.80 46.80 71.78 C 53.04 64.65 60.88 59.20 69.08 54.56 C 71.59 48.12 73.62 41.50 76.11 35.06 C 76.87 32.59 79.51 31.30 81.98 31.51 C 89.53 31.58 97.08 31.77 104.63 31.67 C 106.66 26.63 106.97 20.74 110.43 16.37 Z" />
<path fill="#f4c61e" d=" M 187.69 20.94 C 189.38 20.26 191.07 19.22 192.98 19.56 C 209.52 21.56 225.86 25.95 240.88 33.24 C 262.76 42.54 282.34 57.07 297.76 75.15 C 299.54 77.48 300.60 80.26 302.36 82.61 C 310.81 93.90 316.78 106.79 322.07 119.79 C 325.37 127.81 327.63 136.32 328.02 145.02 C 328.41 148.30 327.83 151.71 328.70 154.90 C 332.77 160.27 337.55 165.07 341.69 170.39 C 343.22 172.17 343.13 174.89 341.95 176.84 C 338.09 183.18 334.19 189.51 330.57 195.99 C 332.46 201.39 339.42 204.02 340.73 209.98 C 341.53 212.70 339.11 214.78 337.15 216.18 C 324.00 225.39 310.78 234.50 297.63 243.72 C 295.05 245.87 290.63 244.93 289.45 241.69 C 283.24 227.30 276.83 212.98 270.61 198.60 C 269.48 196.10 268.26 193.16 269.66 190.50 C 270.82 188.06 273.71 187.75 276.04 187.23 C 282.08 186.08 287.98 184.35 294.00 183.09 C 295.64 180.19 297.34 177.31 299.03 174.43 C 295.13 169.56 290.68 165.14 286.95 160.14 C 283.14 153.54 288.53 145.95 285.73 139.17 C 281.18 124.86 274.11 111.18 264.16 99.87 C 258.28 90.45 248.92 84.00 239.77 78.06 C 224.95 69.62 209.01 62.48 191.95 60.30 C 189.35 59.81 186.20 59.82 184.48 57.48 C 183.20 55.91 183.69 53.76 183.79 51.93 C 184.58 45.95 184.94 39.93 185.74 33.95 C 186.36 29.61 186.20 25.12 187.69 20.94 Z" />
<path fill="#231a17" d=" M 46.24 255.18 C 45.48 249.18 50.87 243.51 56.86 243.86 C 69.98 245.21 83.10 246.68 96.20 248.21 C 101.97 249.11 108.33 248.38 113.39 251.79 C 114.30 252.88 115.24 253.95 116.21 255.00 C 116.93 257.10 118.03 259.27 117.40 261.54 C 115.96 268.04 113.47 274.23 111.82 280.66 C 111.26 282.13 112.41 283.43 112.83 284.76 C 120.51 285.03 128.22 280.48 135.75 283.76 C 139.64 285.80 142.84 288.87 146.49 291.23 C 160.93 295.50 176.22 295.08 191.06 293.93 C 193.01 293.60 194.97 293.36 196.90 292.94 C 201.15 292.22 205.14 290.59 209.20 289.24 C 214.31 287.03 219.24 284.42 224.10 281.71 C 226.81 281.39 228.91 279.56 230.98 277.95 C 238.12 273.68 243.91 267.62 250.09 262.14 C 255.51 257.71 259.08 251.57 263.49 246.24 C 265.23 243.97 268.20 244.49 270.70 244.49 C 278.82 248.46 285.70 254.39 292.98 259.66 C 293.20 259.68 293.66 259.72 293.88 259.75 C 295.40 261.52 297.55 262.54 299.53 263.71 L 299.38 264.40 C 299.73 264.61 300.42 265.03 300.76 265.24 C 301.14 265.62 301.89 266.37 302.27 266.74 C 305.13 269.35 304.94 273.48 303.79 276.89 C 302.11 280.39 299.24 283.11 297.07 286.29 C 294.59 287.75 293.32 290.32 291.64 292.52 C 282.45 303.08 271.36 311.78 259.94 319.76 C 254.79 323.15 249.36 326.09 244.06 329.24 C 238.10 331.90 232.24 334.76 226.14 337.11 C 215.90 340.82 205.36 343.84 194.53 345.19 C 191.76 344.12 188.84 345.35 186.01 345.39 C 176.69 345.98 167.30 345.99 158.02 344.91 C 144.17 343.70 129.91 341.61 117.67 334.59 C 115.61 333.56 113.60 331.82 111.14 332.17 C 104.41 332.75 97.92 335.15 91.15 335.31 C 86.34 335.03 82.92 331.06 81.14 326.92 C 79.42 323.97 77.71 321.02 76.14 318.00 C 75.11 316.28 74.11 314.55 73.03 312.86 C 66.91 314.47 59.31 316.80 53.79 312.44 C 52.22 311.50 51.32 309.85 51.01 308.09 C 49.74 302.14 49.64 296.03 49.24 289.99 C 48.12 278.40 47.05 266.80 46.24 255.18 Z" />
<path fill="#f4c61e" d=" M 53.21 250.33 C 54.81 248.82 57.13 249.16 59.13 249.31 C 74.95 251.16 90.81 252.69 106.62 254.68 C 109.32 254.86 111.64 256.80 112.31 259.42 C 112.37 261.41 111.55 263.28 111.00 265.15 C 109.08 270.78 107.67 276.56 105.72 282.18 C 107.39 285.05 109.02 287.93 110.53 290.88 C 117.08 290.35 123.38 288.17 129.92 287.67 C 135.69 288.41 139.47 293.27 144.22 296.04 C 153.64 299.15 163.65 299.57 173.49 300.14 L 173.38 300.28 C 173.44 300.27 173.55 300.26 173.61 300.25 C 179.06 299.51 184.63 299.86 190.02 298.61 C 194.19 297.65 198.57 297.92 202.69 296.65 C 216.35 292.83 228.91 285.76 240.15 277.22 C 249.84 270.73 257.99 262.22 265.09 253.03 C 266.68 250.63 270.10 249.37 272.54 251.30 C 279.71 256.19 286.61 261.47 293.67 266.51 C 296.18 268.32 299.86 270.32 299.21 273.99 C 297.99 277.51 295.11 280.09 292.89 282.99 C 284.12 293.82 273.77 303.35 262.25 311.20 C 243.91 324.96 222.48 334.60 200.00 339.11 C 195.73 340.10 191.32 339.31 187.01 339.97 C 178.97 340.99 170.85 340.61 162.79 340.18 C 151.79 339.06 140.61 338.17 130.11 334.46 C 124.35 332.36 118.82 329.62 113.62 326.35 C 106.42 327.47 99.25 328.78 92.13 330.33 C 90.16 329.73 88.13 328.89 87.19 326.92 C 83.56 320.29 79.82 313.73 76.17 307.12 C 70.07 307.62 64.25 310.73 58.02 309.38 C 55.72 306.80 55.39 303.34 55.25 300.04 C 53.98 285.36 52.86 270.67 51.51 256.00 C 51.33 254.01 51.38 251.59 53.21 250.33 Z" />
<path fill="#ffffff" d=" M 173.49 300.14 L 173.61 300.25 C 173.55 300.26 173.44 300.27 173.38 300.28 L 173.49 300.14 Z" />
</svg>
